<svg viewBox="0 0 500 500" xmlns="http://www.w3.org/2000/svg">
  <defs>
    <linearGradient x1="0" y1="0" x2="1" y2="0" gradientUnits="userSpaceOnUse" gradientTransform="matrix(-206.59663,-122.36196,-122.36196,206.59663,303.34607,622.64172)" spreadMethod="pad" id="linearGradient32">
      <stop style="stop-opacity:1;stop-color:#821517" offset="0" id="stop24"></stop>
      <stop style="stop-opacity:1;stop-color:#ee2931" offset="0.2454" id="stop26"></stop>
      <stop style="stop-opacity:1;stop-color:#ee2931" offset="0.8994" id="stop28"></stop>
      <stop style="stop-opacity:1;stop-color:#ee2931" offset="1" id="stop30"></stop>
    </linearGradient>
    <clipPath clipPathUnits="userSpaceOnUse" id="clipPath42">
      <path d="M 0,841.89 H 595.276 V 0 H 0 Z" id="path40"></path>
    </clipPath>
    <linearGradient x1="0" y1="0" x2="1" y2="0" gradientUnits="userSpaceOnUse" gradientTransform="matrix(-218.12349,-155.61249,-155.61249,218.12349,374.84952,665.13635)" spreadMethod="pad" id="linearGradient66">
      <stop style="stop-opacity:1;stop-color:#821517" offset="0" id="stop60"></stop>
      <stop style="stop-opacity:1;stop-color:#ee2931" offset="0.2009" id="stop62"></stop>
      <stop style="stop-opacity:1;stop-color:#ee2931" offset="1" id="stop64"></stop>
    </linearGradient>
    <linearGradient x1="0" y1="0" x2="1" y2="0" gradientUnits="userSpaceOnUse" gradientTransform="matrix(-189.74971,4.8767447,4.8767447,189.74971,343.88794,619.56116)" spreadMethod="pad" id="linearGradient88">
      <stop style="stop-opacity:1;stop-color:#821517" offset="0" id="stop82"></stop>
      <stop style="stop-opacity:1;stop-color:#ee2931" offset="0.3943" id="stop84"></stop>
      <stop style="stop-opacity:1;stop-color:#ee2931" offset="1" id="stop86"></stop>
    </linearGradient>
  </defs>
  <g id="g10" transform="matrix(3.131827, 0, 0, -3.029769, -581.756287, 2047.793701)">
    <g id="g12">
      <g id="g14">
        <g id="g20">
          <g id="g22">
            <path d="m 185.885,636.948 c 0.363,-8.107 1.409,-16.054 3.417,-25.947 v 0 c 1.926,-9.484 3.794,-16.144 7.21,-25.717 v 0 c 1.925,-5.394 5.794,-13.815 8.936,-19.455 v 0 c 10.272,-18.433 24.282,-33.571 42.151,-45.544 v 0 c 5.143,-3.446 12.805,-7.905 15.464,-8.999 v 0 c 1.397,-0.575 2.403,-0.566 3.593,0.032 v 0 c 3.029,1.52 17.84,16.408 23.687,23.807 v 0 c 0.26,0.33 0.959,1.199 1.552,1.933 v 0 c 6.368,7.87 12.405,17.341 17.307,27.148 v 0 c 3.238,6.477 7.257,16.106 6.88,16.483 v 0 c -0.413,0.412 -0.957,-0.146 -2.061,-2.112 v 0 c -1.475,-2.625 -4.654,-7.713 -6.924,-11.083 v 0 c -9.445,-14.02 -20.782,-26.481 -33.841,-37.194 v 0 c -4.581,-3.759 -6.09,-4.508 -8.733,-4.338 v 0 c -1.75,0.112 -3.217,0.805 -7.063,3.336 v 0 c -5.535,3.642 -7.618,5.148 -12.278,8.876 v 0 c -11.601,9.279 -21.381,19.806 -30.019,32.317 v 0 c -13.379,19.374 -22.945,42.756 -28.589,69.883 v 0 c -0.316,1.522 -0.535,2.309 -0.666,2.309 v 0 c -0.201,0 -0.196,-1.85 -0.023,-5.735" style="fill:url(#linearGradient32);stroke:none" id="path34"></path>
          </g>
        </g>
      </g>
    </g>
    <g id="g36">
      <g id="g38" clip-path="url(#clipPath42)">
        <g id="g44" transform="translate(274.0898,623.4186)">
          <path d="M 0,0 V 5.027 H 19.933 C 31.521,5.027 39.839,4.955 39.802,4.855 39.766,4.76 38.301,2.499 36.546,-0.171 L 33.355,-5.024 16.678,-5.025 0,-5.027 Z m 0.071,-45.538 c -0.041,0.106 -0.051,6.893 -0.024,15.082 l 0.05,14.89 h 17.21 17.209 v -4.931 -4.931 l -11.068,-0.05 -11.069,-0.05 -0.05,-10.068 -0.05,-10.068 -6.067,-0.033 c -3.899,-0.022 -6.094,0.035 -6.141,0.159 z m -50.065,-0.082 c -0.038,0.062 0.138,0.41 0.39,0.774 0.254,0.364 1.741,2.619 3.305,5.013 1.564,2.392 4.393,6.7 6.287,9.571 1.893,2.871 4.905,7.456 6.693,10.188 1.788,2.732 4.584,6.996 6.214,9.475 1.629,2.479 4.591,6.988 6.583,10.019 l 3.62,5.511 6.615,0.05 6.615,0.051 -0.049,-25.343 -0.05,-25.344 -13.003,-0.038 c -7.152,-0.021 -13.004,0.024 -13.004,0.099 0,0.076 1.404,2.277 3.121,4.891 l 3.122,4.752 3.74,-0.056 3.74,-0.056 0.052,10.992 c 0.027,6.046 -0.004,11.027 -0.072,11.068 -0.068,0.042 -1.444,-1.946 -3.057,-4.417 -1.614,-2.472 -6.301,-9.616 -10.416,-15.876 l -7.481,-11.383 -6.448,-0.026 c -3.546,-0.014 -6.479,0.024 -6.517,0.086 z" style="fill:#838485;fill-opacity:1;fill-rule:nonzero;stroke:none" id="path46"></path>
        </g>
      </g>
    </g>
    <g id="g48">
      <g id="g50">
        <g id="g56">
          <g id="g58">
            <path d="m 277.474,661.95 c -9.737,-0.003 -13.927,-0.299 -19.724,-1.392 v 0 c -1.661,-0.313 -1.705,-0.335 -0.967,-0.463 v 0 c 0.426,-0.074 2.341,-0.234 4.255,-0.355 v 0 c 1.914,-0.122 4.089,-0.305 4.834,-0.407 v 0 c 0.745,-0.103 2.137,-0.269 3.094,-0.369 v 0 c 19.28,-2.032 39.098,-7.32 57.623,-15.373 v 0 c 7.19,-3.126 7.744,-4.183 6.883,-13.157 v 0 c -2.275,-23.691 -7.233,-43.27 -15.649,-61.797 v 0 C 311.527,554.777 302.62,540.76 293.291,530.03 v 0 c -1.05,-1.208 -1.218,-1.506 -1.218,-2.16 v 0 c 0,-0.417 0.053,-0.896 0.117,-1.064 v 0 c 0.094,-0.245 0.298,-0.142 1.028,0.517 v 0 c 9.195,8.289 12.52,11.575 16.778,16.58 v 0 c 11.846,13.925 20.305,28.895 26.222,46.408 v 0 c 2.832,8.38 5.291,18.495 6.604,27.167 v 0 c 0.272,1.808 0.583,3.81 0.691,4.448 v 0 c 0.749,4.47 2.022,20.506 1.884,23.717 v 0 c -0.09,2.094 -0.594,2.987 -2.119,3.76 v 0 c -1.488,0.753 -7.899,3.163 -11.758,4.417 v 0 c -17.267,5.616 -33.959,8.13 -53.97,8.13 v 0 c -0.025,0 -0.051,0 -0.076,0" style="fill:url(#linearGradient66);stroke:none" id="path68"></path>
          </g>
        </g>
      </g>
    </g>
    <g id="g70">
      <g id="g72">
        <g id="g78">
          <g id="g80">
            <path d="m 251.66,675.383 c -20.013,-1.522 -38.317,-6.492 -54.511,-14.799 v 0 c -4.221,-2.167 -5.47,-2.969 -6.292,-4.048 v 0 c -1.24,-1.627 -1.338,-3.353 -0.441,-7.829 v 0 c 0.287,-1.435 0.919,-4.655 1.404,-7.155 v 0 c 3.502,-18.059 8.557,-33.322 16.04,-48.437 v 0 c 4.167,-8.416 7.851,-14.587 13.417,-22.475 v 0 -10e-4 c 0.917,-1.301 1.733,-2.366 1.813,-2.369 v 0 c 0.079,-0.002 0.145,0.315 0.145,0.705 v 0 c 0,0.489 -0.266,1.162 -0.863,2.18 v 0 c -2.093,3.571 -6.479,13.192 -8.996,19.736 v 0 c -6.741,17.527 -10.616,36.388 -10.962,53.369 v 0 c -0.116,5.742 -0.623,6.56 4.869,9.209 v 0 c 12.979,4.992 26.375,8.661 39.349,10.78 v 0 c 7.306,1.192 11.319,1.66 19.627,2.288 v 0 c 4.404,0.335 19.819,0.331 24.171,-0.002 v 0 c 6.235,-0.481 12.759,-1.161 16.001,-1.671 v 0 c 1.037,-0.163 2.69,-0.42 3.674,-0.573 v 0 c 6.486,-1.006 17.473,-3.642 25.377,-6.089 v 0 c 1.701,-0.526 3.12,-0.929 3.156,-0.895 v 0 c 0.16,0.161 -5.462,3.398 -8.568,4.934 v 0 c -13.407,6.624 -30.985,11.407 -47.568,12.946 v 0 c -5.042,0.468 -10.812,0.704 -16.595,0.704 v 0 c -4.886,0 -9.78,-0.168 -14.247,-0.508" style="fill:url(#linearGradient88);stroke:none" id="path90"></path>
          </g>
        </g>
      </g>
    </g>
  </g>
</svg>