<svg id="Layer_1" data-name="Layer 1" xmlns="http://www.w3.org/2000/svg" xmlns:xlink="http://www.w3.org/1999/xlink" viewBox="0 0 279.15 27.88"><defs><style>.cls-1{fill:#fff;}.cls-2{clip-path:url(#clip-path);}</style><clipPath id="clip-path" transform="translate(-58.66 -106.78)"><path class="cls-1" d="M315,121.48l-9.58,13.18h6.15l7.58-10.43h10.47c1,0,1.26.58.87,1.11h0l-6.77,9.32h6.15l7.58-10.44h0c1.3-1.79-1.36-2.74-4.15-2.74H315Zm-21.43,0c-3.75,0-6.79.89-8.14,2.74h0l-5.38,7.42h0c-1,1.34-.41,3,3.95,3H296.1c3.72,0,6.5-.49,8.22-2.85h0c1.71-2.37,4.27-5.89,5.32-7.34h0c1.05-1.44-.37-3-4-3H293.59Zm-7.13,9.81c.25-.34,4.28-5.88,4.65-6.4h0a1.89,1.89,0,0,1,1.5-.67h0l9.47,0h0c.79,0,1.29.45,1,.84h0l-4.56,6.28h0a3,3,0,0,1-1.78.94h-9.47c-.58,0-1.06-.62-.81-1m-7.93-9.81L269,134.66h6.15l9.57-13.18Zm-21.28,0c-2.33,0-6.48.46-7.72,2.16h0l-2.64,3.64h0c-.45.62-.33,2.14,1.62,2.14h13.71c.61,0,1.07.33.77.73h0l-1,1.33h0a3.55,3.55,0,0,1-2.41.81h0l-16.35,0h0l-1.74,2.4h18.19c2.34,0,6.45-.42,7.55-1.94h0L270,129h0c.41-.57.42-2.1-1.67-2.1h0l-14,0h0c-.49,0-.75-.41-.57-.66h0c.19-.25.71-1,.95-1.31h0a2.62,2.62,0,0,1,1.88-.72h16.84l2-2.75Zm-15.53,0-7.08,9.75h0a3.26,3.26,0,0,1-2.27,1h-8.85c-1,0-1.34-.53-.9-1.13h0l7-9.65h-6.14l-7.38,10.16h0c-.89,1.23-.52,3,4,3h12.1c3.88,0,7-1.18,7.89-2.4h0l7.83-10.78h-6.15Zm-39.6,0c-4.14,0-7.07,1.28-8.14,2.74h0l-7.58,10.44h6.15l3.79-5.22H209l1.84-2.54H198.18l1-1.33h0a4.36,4.36,0,0,1,3.13-1.35H218.2l2-2.74Z"/></clipPath></defs><title>logo-v222 White (sized)</title><g id="g16"><g id="g30"><path id="path32" class="cls-1" d="M185.6,111.17h-.88l-2.29,3.1h.88Zm-1.92,0H181.9l-2.29,3.1h1.78Zm-2.86,0h-2.13l-2.29,3.1h2.13Zm-3.23,0h-2.27l-2.29,3.1h2.27Zm-3.24,0h-3.76l-2.29,3.1h3.76Zm-5,0H164.1l-2.29,3.1H167Zm11.76,10.31H171a5.58,5.58,0,0,0-3.93,1.72L162.15,130c-.73,1-.22,1.63.94,1.63l10.95.06a4,4,0,0,0,3.35-1.53l5-6.92c.89-1.22-.47-1.72-1.33-1.72m10.06,0-7.38,10.16c-1,1.37-4.32,3-9.68,3H158.74c-4.17,0-6.29-1.64-5.29-3s7.38-10.16,7.38-10.16c1.07-1.47,3.87-3.16,9.78-3.16H186c3.53,0,6.34,1.57,5.19,3.16m-39.71-14.7s-17.1,23.55-18.06,24.86,1.14,3,5.11,3H149l2.19-3h-8.41c-.88,0-1.83-.42-1.12-1.4l11.6-16h7.19l2.2-3.1h-7.15l3.19-4.39Zm-41,11.54-9.68,13.32c-1,1.31.67,3,5.26,3h15.37c4.69,0,8.05-.82,9.64-3l9.68-13.32h-7.45s-8.12,11.17-8.65,11.91a4.49,4.49,0,0,1-3.23,1.42l-10.5,0c-1.31,0-2.35-.42-1.51-1.58l8.52-11.72Zm-.07-2.95-14,19.29H88.13L96,123.8H74.79l-7.88,10.86H58.66l14.81-20.39c1.62-2.24,6.08-4.12,10.3-4.12h18.55l-2.38,3.18H85.14a5.26,5.26,0,0,0-4,1.75l-3.87,5.34H98.48l7.46-10.27c4.19,0,6.3,2.67,4.45,5.22" transform="translate(-58.66 -106.78)"/></g></g><g id="g38"><path class="cls-1" d="M315,121.48l-9.58,13.18h6.15l7.58-10.43h10.47c1,0,1.26.58.87,1.11h0l-6.77,9.32h6.15l7.58-10.44h0c1.3-1.79-1.36-2.74-4.15-2.74H315Zm-21.43,0c-3.75,0-6.79.89-8.14,2.74h0l-5.38,7.42h0c-1,1.34-.41,3,3.95,3H296.1c3.72,0,6.5-.49,8.22-2.85h0c1.71-2.37,4.27-5.89,5.32-7.34h0c1.05-1.44-.37-3-4-3H293.59Zm-7.13,9.81c.25-.34,4.28-5.88,4.65-6.4h0a1.89,1.89,0,0,1,1.5-.67h0l9.47,0h0c.79,0,1.29.45,1,.84h0l-4.56,6.28h0a3,3,0,0,1-1.78.94h-9.47c-.58,0-1.06-.62-.81-1m-7.93-9.81L269,134.66h6.15l9.57-13.18Zm-21.28,0c-2.33,0-6.48.46-7.72,2.16h0l-2.64,3.64h0c-.45.62-.33,2.14,1.62,2.14h13.71c.61,0,1.07.33.77.73h0l-1,1.33h0a3.55,3.55,0,0,1-2.41.81h0l-16.35,0h0l-1.74,2.4h18.19c2.34,0,6.45-.42,7.55-1.94h0L270,129h0c.41-.57.42-2.1-1.67-2.1h0l-14,0h0c-.49,0-.75-.41-.57-.66h0c.19-.25.71-1,.95-1.31h0a2.62,2.62,0,0,1,1.88-.72h16.84l2-2.75Zm-15.53,0-7.08,9.75h0a3.26,3.26,0,0,1-2.27,1h-8.85c-1,0-1.34-.53-.9-1.13h0l7-9.65h-6.14l-7.38,10.16h0c-.89,1.23-.52,3,4,3h12.1c3.88,0,7-1.18,7.89-2.4h0l7.83-10.78h-6.15Zm-39.6,0c-4.14,0-7.07,1.28-8.14,2.74h0l-7.58,10.44h6.15l3.79-5.22H209l1.84-2.54H198.18l1-1.33h0a4.36,4.36,0,0,1,3.13-1.35H218.2l2-2.74Z" transform="translate(-58.66 -106.78)"/><g class="cls-2"><g id="g40"><g id="g46"><g id="g48"><path id="path60" class="cls-1" d="M315,121.48l-9.58,13.18h6.15l7.58-10.43h10.47c1,0,1.26.58.87,1.11h0l-6.77,9.32h6.15l7.58-10.44h0c1.3-1.79-1.36-2.74-4.15-2.74H315Zm-21.43,0c-3.75,0-6.79.89-8.14,2.74h0l-5.38,7.42h0c-1,1.34-.41,3,3.95,3H296.1c3.72,0,6.5-.49,8.22-2.85h0c1.71-2.37,4.27-5.89,5.32-7.34h0c1.05-1.44-.37-3-4-3H293.59Zm-7.13,9.81c.25-.34,4.28-5.88,4.65-6.4h0a1.89,1.89,0,0,1,1.5-.67h0l9.47,0h0c.79,0,1.29.45,1,.84h0l-4.56,6.28h0a3,3,0,0,1-1.78.94h-9.47c-.58,0-1.06-.62-.81-1m-7.93-9.81L269,134.66h6.15l9.57-13.18Zm-21.28,0c-2.33,0-6.48.46-7.72,2.16h0l-2.64,3.64h0c-.45.62-.33,2.14,1.62,2.14h13.71c.61,0,1.07.33.77.73h0l-1,1.33h0a3.55,3.55,0,0,1-2.41.81h0l-16.35,0h0l-1.74,2.4h18.19c2.34,0,6.45-.42,7.55-1.94h0L270,129h0c.41-.57.42-2.1-1.67-2.1h0l-14,0h0c-.49,0-.75-.41-.57-.66h0c.19-.25.71-1,.95-1.31h0a2.62,2.62,0,0,1,1.88-.72h16.84l2-2.75Zm-15.53,0-7.08,9.75h0a3.26,3.26,0,0,1-2.27,1h-8.85c-1,0-1.34-.53-.9-1.13h0l7-9.65h-6.14l-7.38,10.16h0c-.89,1.23-.52,3,4,3h12.1c3.88,0,7-1.18,7.89-2.4h0l7.83-10.78h-6.15Zm-39.6,0c-4.14,0-7.07,1.28-8.14,2.74h0l-7.58,10.44h6.15l3.79-5.22H209l1.84-2.54H198.18l1-1.33h0a4.36,4.36,0,0,1,3.13-1.35H218.2l2-2.74Z" transform="translate(-58.66 -106.78)"/></g></g></g></g></g></svg>