<?xml version="1.0" encoding="UTF-8" standalone="no"?>
<svg
   xmlns:dc="http://purl.org/dc/elements/1.1/"
   xmlns:cc="http://creativecommons.org/ns#"
   xmlns:rdf="http://www.w3.org/1999/02/22-rdf-syntax-ns#"
   xmlns:svg="http://www.w3.org/2000/svg"
   xmlns="http://www.w3.org/2000/svg"
   viewBox="0 0 1587.4 1122.52"
   height="1122.52"
   width="1587.4"
   xml:space="preserve"
   id="svg2"
   version="1.1"><metadata
     id="metadata8"><rdf:RDF><cc:Work
         rdf:about=""><dc:format>image/svg+xml</dc:format><dc:type
           rdf:resource="http://purl.org/dc/dcmitype/StillImage" /></cc:Work></rdf:RDF></metadata><defs
     id="defs6"><clipPath
       id="clipPath20"
       clipPathUnits="userSpaceOnUse"><path
         id="path18"
         d="M 0,841.89 H 1190.551 V 0 H 0 Z" /></clipPath><clipPath
       id="clipPath44"
       clipPathUnits="userSpaceOnUse"><path
         id="path42"
         d="M 984.801,393.341 952.51,348.877 h 20.728 l 25.563,35.175 h 35.303 c 3.294,0 4.248,-1.958 2.959,-3.734 v 0 c -1.29,-1.775 -22.834,-31.441 -22.834,-31.441 v 0 h 20.727 c 0,0 21.17,29.151 25.563,35.201 v 0 c 4.394,6.05 -4.596,9.263 -14,9.263 v 0 z m -72.246,0 c -12.666,0 -22.909,-3.005 -27.455,-9.263 v 0 c -4.545,-6.26 -14.879,-20.49 -18.163,-25.011 v 0 c -3.283,-4.521 -1.357,-10.19 13.328,-10.19 v 0 h 40.738 c 12.543,0 21.918,1.64 27.714,9.62 v 0 c 5.795,7.98 14.42,19.857 17.964,24.736 v 0 c 3.543,4.88 -1.258,10.108 -13.388,10.108 v 0 z m -24.044,-33.109 c 0.847,1.167 14.412,19.845 15.67,21.579 v 0 c 1.006,1.384 3.016,2.267 5.057,2.267 v 0 c 2.042,0 29.249,0.076 31.925,0.076 v 0 c 2.676,0 4.368,-1.502 3.39,-2.848 v 0 c -0.979,-1.348 -14.167,-19.508 -15.376,-21.173 v 0 c -1.21,-1.666 -4.585,-3.151 -6.025,-3.151 v 0 h -31.908 c -1.955,0 -3.58,2.085 -2.733,3.25 m -26.738,33.109 -32.29,-44.464 h 20.728 l 32.29,44.464 z m -71.782,0 c -7.847,0 -21.855,-1.554 -26.035,-7.308 v 0 c -4.18,-5.755 -7.395,-10.184 -8.909,-12.268 v 0 c -1.514,-2.084 -1.104,-7.21 5.484,-7.21 v 0 h 46.212 c 2.059,0 3.608,-1.108 2.616,-2.474 v 0 c -0.992,-1.365 -2.347,-3.232 -3.254,-4.482 v 0 c -0.907,-1.248 -4.507,-2.72 -8.11,-2.72 v 0 c -3.603,0 -55.136,0.103 -55.136,0.103 v 0 l -5.885,-8.105 h 61.343 c 7.911,0 21.756,1.416 25.477,6.54 v 0 c 3.722,5.125 7.733,10.647 9.12,12.558 v 0 c 1.388,1.91 1.443,7.071 -5.623,7.071 v 0 c -7.064,0 -45.455,-0.052 -47.102,-0.052 v 0 c -1.647,0 -2.536,1.358 -1.918,2.209 v 0 c 0.619,0.851 2.384,3.282 3.206,4.414 v 0 c 0.823,1.133 3.447,2.435 6.329,2.435 v 0 h 56.803 l 6.726,9.289 z m -52.356,0 c 0,0 -22.885,-31.514 -23.887,-32.894 v 0 c -1.003,-1.38 -4.371,-3.465 -7.665,-3.465 v 0 h -29.847 c -3.397,0 -4.506,1.78 -3.03,3.813 v 0 c 1.476,2.032 23.617,32.519 23.617,32.519 v 0 l -20.709,0.027 c 0,0 -21.877,-30.125 -24.89,-34.274 v 0 c -3.014,-4.15 -1.753,-10.19 13.328,-10.19 v 0 h 40.793 c 13.09,0 23.619,3.981 26.614,8.105 v 0 c 2.996,4.126 26.404,36.359 26.404,36.359 v 0 z m -133.544,0 c -13.992,0 -23.872,-4.33 -27.455,-9.263 v 0 l -25.562,-35.201 h 20.728 l 12.78,17.6 h 42.559 l 6.222,8.569 h -42.558 c 0,0 1.057,1.455 3.253,4.479 v 0 c 2.196,3.025 7.454,4.553 10.541,4.553 v 0 h 53.699 l 6.708,9.263 z" /></clipPath><linearGradient
       id="linearGradient58"
       spreadMethod="pad"
       gradientTransform="matrix(515.70319,0,0,-515.70319,548.37701,370.52991)"
       gradientUnits="userSpaceOnUse"
       y2="0"
       x2="1"
       y1="0"
       x1="0"><stop
         id="stop50"
         offset="0"
         style="stop-opacity:1;stop-color:#dedede" /><stop
         id="stop52"
         offset="0.36806"
         style="stop-opacity:1;stop-color:#4c5659" /><stop
         id="stop54"
         offset="0.705227"
         style="stop-opacity:1;stop-color:#dedede" /><stop
         id="stop56"
         offset="1"
         style="stop-opacity:1;stop-color:#91959c" /></linearGradient><clipPath
       id="clipPath68"
       clipPathUnits="userSpaceOnUse"><path
         id="path66"
         d="M 0,841.89 H 1190.551 V 0 H 0 Z" /></clipPath></defs><g
     transform="matrix(1.3333333,0,0,-1.3333333,0,1122.52)"
     id="g10"><g
       id="g14"><g
         clip-path="url(#clipPath20)"
         id="g16"><g
           transform="translate(166.5122,420.8102)"
           id="g22"><path
             id="path24"
             style="fill:#e52226;fill-opacity:1;fill-rule:nonzero;stroke:none"
             d="m 0,0 17.958,18.511 c 0,0 5.525,4.42 1.381,13.261 l 93.935,2.763 c 0,0 -116.037,3.315 -119.628,6.078 0,0 84.264,11.051 100.289,12.709 16.023,1.657 41.994,3.315 72.937,1.657 30.943,-1.657 57.742,-3.867 67.135,-9.393 9.394,-5.525 37.298,-22.655 37.298,-22.655 l -30.39,26.247 c 0,0 77.91,43.652 184.83,43.652 0,0 11.88,0 19.615,-3.039 7.736,-3.04 32.878,-11.88 32.878,-11.88 L 448.952,92.83 c 0,0 40.964,2.21 58.332,1.105 0,0 -16.062,9.393 -68.83,9.393 -52.77,0 -115.485,-3.591 -200.303,-23.483 C 153.334,59.953 150.019,63.544 150.019,63.544 l -7.736,3.315 108.181,20.997 c 0,0 -116.193,-18.786 -185.262,-29.008 -53.368,-7.899 -86.283,-11.839 -98.49,-13.222 -2.802,-0.317 -4.611,-3.106 -3.775,-5.8 0.529,-1.704 2.004,-2.933 3.777,-3.135 9.498,-1.078 39.204,-4.456 42.679,-4.919 4.145,-0.552 6.078,-7.183 2.763,-12.709 C 8.715,13.329 0,0 0,0" /></g><g
           transform="translate(475.1147,481.8679)"
           id="g26"><path
             id="path28"
             style="fill:#e52226;fill-opacity:1;fill-rule:nonzero;stroke:none"
             d="m 0,0 c 0,0 55.255,-23.76 138.416,-22.378 83.159,1.381 192.565,4.696 192.565,4.696 l -101.67,40.06 118.247,-39.783 c 0,0 39.508,1.265 72.385,-5.032 32.877,-6.296 113.826,-30.885 166.319,-60.17 0,0 -21.273,5.802 -39.508,6.631 -18.234,0.828 -46.966,1.657 -68.516,20.168 l 8.564,1.105 c 0,0 -51.111,24.589 -106.643,24.589 -55.533,0 -191.461,1.934 -246.992,2.762 C 77.634,-26.522 40.336,-20.168 0,0" /></g><g
           transform="translate(548.377,428.1032)"
           id="g30"><path
             id="path32"
             style="fill:#e52226;fill-opacity:1;fill-rule:nonzero;stroke:none"
             d="m 0,0 h -2.996 l -7.723,-10.447 h 2.996 z m -6.494,0 h -5.992 l -7.722,-10.447 h 5.991 z m -9.646,0 h -7.16 l -7.723,-10.447 h 7.161 z m -10.895,0 h -7.653 l -7.723,-10.447 h 7.653 z m -10.932,0 h -12.678 l -7.723,-10.447 h 12.679 z m -16.906,0 h -17.634 l -7.723,-10.447 h 17.634 z m 39.666,-34.789 h -34.067 c -5.044,0 -11.12,-2.86 -13.245,-5.787 0,0 -14.105,-19.422 -16.564,-22.808 -2.459,-3.386 -0.76,-5.472 3.151,-5.472 3.911,0 36.95,-0.206 36.95,-0.206 5.867,0 9.561,2.769 11.285,5.145 1.725,2.375 13.954,19.213 16.952,23.341 2.997,4.128 -1.58,5.787 -4.462,5.787 m 33.918,0.027 c -3.878,-5.34 -21.524,-29.639 -24.89,-34.275 -3.366,-4.634 -14.557,-10.189 -32.634,-10.189 h -51.774 c -14.061,0 -21.222,5.526 -17.835,10.189 3.386,4.663 24.89,34.275 24.89,34.275 3.584,4.934 13.054,10.652 32.971,10.652 H 1.212 c 11.886,0 21.376,-5.313 17.499,-10.652 M -115.22,14.795 c 0,0 -57.674,-79.418 -60.88,-83.832 -3.206,-4.414 3.812,-10.189 17.202,-10.189 h 35.581 l 7.4,10.189 h -28.357 c -2.984,0 -6.194,1.419 -3.797,4.72 2.397,3.3 39.121,53.87 39.121,53.87 h 24.269 L -77.27,0 h -24.112 l 10.764,14.795 z M -253.422,-24.11 c 0,0 -29.416,-40.506 -32.626,-44.927 -3.211,-4.421 2.248,-10.189 17.718,-10.189 h 51.848 c 15.806,0 27.137,2.779 32.518,10.189 5.382,7.412 32.627,44.927 32.627,44.927 h -25.12 c 0,0 -27.367,-37.685 -29.168,-40.165 -1.801,-2.479 -6.682,-4.787 -10.902,-4.787 -4.22,0 -30.98,0.103 -35.406,0.103 -4.425,0 -7.909,1.419 -5.077,5.32 2.833,3.9 28.707,39.529 28.707,39.529 z m -0.218,9.95 c -6.229,-8.578 -47.252,-65.066 -47.252,-65.066 h -27.817 l 26.59,36.615 h -71.574 c -12.802,-17.628 -26.591,-36.615 -26.591,-36.615 h -27.817 l 49.949,68.779 c 5.47,7.532 20.516,13.895 34.719,13.895 h 62.579 l -8.028,-10.741 h -49.919 c -5.763,0 -11.262,-2.779 -13.539,-5.915 -0.745,-1.025 -6.138,-8.452 -13.056,-17.978 h 71.574 l 25.152,34.634 c 14.14,0 21.26,-9.03 15.03,-17.608" /></g><g
           transform="translate(1024.9434,329.424)"
           id="g34"><path
             id="path36"
             style="fill:#e52226;fill-opacity:1;fill-rule:nonzero;stroke:none"
             d="m 0,0 h -915.204 l -4.323,-5.789 H -4.323 Z" /></g></g></g><g
       id="g38"><g
         clip-path="url(#clipPath44)"
         id="g40"><g
           id="g46"><g
             id="g48"><path
               id="path60"
               style="fill:url(#linearGradient58);stroke:none"
               d="M 984.801,393.341 952.51,348.877 h 20.728 l 25.563,35.175 h 35.303 c 3.294,0 4.248,-1.958 2.959,-3.734 v 0 c -1.29,-1.775 -22.834,-31.441 -22.834,-31.441 v 0 h 20.727 c 0,0 21.17,29.151 25.563,35.201 v 0 c 4.394,6.05 -4.596,9.263 -14,9.263 v 0 z m -72.246,0 c -12.666,0 -22.909,-3.005 -27.455,-9.263 v 0 c -4.545,-6.26 -14.879,-20.49 -18.163,-25.011 v 0 c -3.283,-4.521 -1.357,-10.19 13.328,-10.19 v 0 h 40.738 c 12.543,0 21.918,1.64 27.714,9.62 v 0 c 5.795,7.98 14.42,19.857 17.964,24.736 v 0 c 3.543,4.88 -1.258,10.108 -13.388,10.108 v 0 z m -24.044,-33.109 c 0.847,1.167 14.412,19.845 15.67,21.579 v 0 c 1.006,1.384 3.016,2.267 5.057,2.267 v 0 c 2.042,0 29.249,0.076 31.925,0.076 v 0 c 2.676,0 4.368,-1.502 3.39,-2.848 v 0 c -0.979,-1.348 -14.167,-19.508 -15.376,-21.173 v 0 c -1.21,-1.666 -4.585,-3.151 -6.025,-3.151 v 0 h -31.908 c -1.955,0 -3.58,2.085 -2.733,3.25 m -26.738,33.109 -32.29,-44.464 h 20.728 l 32.29,44.464 z m -71.782,0 c -7.847,0 -21.855,-1.554 -26.035,-7.308 v 0 c -4.18,-5.755 -7.395,-10.184 -8.909,-12.268 v 0 c -1.514,-2.084 -1.104,-7.21 5.484,-7.21 v 0 h 46.212 c 2.059,0 3.608,-1.108 2.616,-2.474 v 0 c -0.992,-1.365 -2.347,-3.232 -3.254,-4.482 v 0 c -0.907,-1.248 -4.507,-2.72 -8.11,-2.72 v 0 c -3.603,0 -55.136,0.103 -55.136,0.103 v 0 l -5.885,-8.105 h 61.343 c 7.911,0 21.756,1.416 25.477,6.54 v 0 c 3.722,5.125 7.733,10.647 9.12,12.558 v 0 c 1.388,1.91 1.443,7.071 -5.623,7.071 v 0 c -7.064,0 -45.455,-0.052 -47.102,-0.052 v 0 c -1.647,0 -2.536,1.358 -1.918,2.209 v 0 c 0.619,0.851 2.384,3.282 3.206,4.414 v 0 c 0.823,1.133 3.447,2.435 6.329,2.435 v 0 h 56.803 l 6.726,9.289 z m -52.356,0 c 0,0 -22.885,-31.514 -23.887,-32.894 v 0 c -1.003,-1.38 -4.371,-3.465 -7.665,-3.465 v 0 h -29.847 c -3.397,0 -4.506,1.78 -3.03,3.813 v 0 c 1.476,2.032 23.617,32.519 23.617,32.519 v 0 l -20.709,0.027 c 0,0 -21.877,-30.125 -24.89,-34.274 v 0 c -3.014,-4.15 -1.753,-10.19 13.328,-10.19 v 0 h 40.793 c 13.09,0 23.619,3.981 26.614,8.105 v 0 c 2.996,4.126 26.404,36.359 26.404,36.359 v 0 z m -133.544,0 c -13.992,0 -23.872,-4.33 -27.455,-9.263 v 0 l -25.562,-35.201 h 20.728 l 12.78,17.6 h 42.559 l 6.222,8.569 h -42.558 c 0,0 1.057,1.455 3.253,4.479 v 0 c 2.196,3.025 7.454,4.553 10.541,4.553 v 0 h 53.699 l 6.708,9.263 z" /></g></g></g></g><g
       id="g62"><g
         clip-path="url(#clipPath68)"
         id="g64"><g
           transform="translate(603.0049,425.0671)"
           id="g70"><path
             id="path72"
             style="fill:#e52226;fill-opacity:1;fill-rule:nonzero;stroke:none"
             d="m 0,0 176.927,-0.772 -9.881,-14.049 -0.463,7.873 c 0,0 -128.604,2.78 -166.583,6.948" /></g><g
           transform="translate(774.7422,404.9572)"
           id="g74"><path
             id="path76"
             style="fill:#e52226;fill-opacity:1;fill-rule:nonzero;stroke:none"
             d="m 0,0 c -0.303,-0.34 -0.83,0.062 -0.585,0.445 6.18,9.68 24.335,33.097 55.326,33.097 31.266,0 52.737,-23.832 60.066,-33.35 0.277,-0.36 -0.217,-0.805 -0.548,-0.492 C 106.223,7.315 84.206,25.205 54.741,25.205 25.657,25.205 6.913,7.773 0,0" /></g></g></g></g></svg>