<?xml version="1.0" standalone="no"?>
<!DOCTYPE svg PUBLIC "-//W3C//DTD SVG 20010904//EN"
 "http://www.w3.org/TR/2001/REC-SVG-20010904/DTD/svg10.dtd">
<svg version="1.0" xmlns="http://www.w3.org/2000/svg"
 width="250.000000pt" height="250.000000pt" viewBox="0 0 250.000000 250.000000"
 preserveAspectRatio="xMidYMid meet">
<metadata>
Created by potrace 1.14, written by Peter Selinger 2001-2017
</metadata>
<g transform="translate(0.000000,250.000000) scale(0.100000,-0.100000)"
fill="#000000" stroke="none">
<path d="M1167 2454 c-1 -1 -47 -5 -103 -8 -56 -4 -114 -9 -130 -11 -16 -3
-42 -7 -59 -10 -16 -2 -48 -7 -70 -11 -191 -28 -536 -155 -624 -229 -40 -34
-40 -39 0 -245 6 -30 20 -91 31 -135 11 -44 21 -87 23 -95 10 -45 82 -251 110
-315 69 -158 169 -338 249 -450 43 -60 47 -46 8 27 -94 177 -209 510 -235 683
-3 17 -7 46 -11 65 -14 82 -16 111 -22 230 -5 97 -3 129 8 143 18 24 276 118
391 142 10 2 26 6 35 9 9 3 33 8 52 11 19 3 43 8 52 11 88 26 383 57 558 57
73 0 272 -11 310 -18 14 -2 45 -6 70 -9 69 -9 109 -16 180 -32 36 -9 72 -17
80 -19 8 -2 49 -12 90 -23 41 -11 86 -23 100 -27 41 -11 -89 62 -180 101 -86
36 -294 100 -360 110 -19 3 -37 7 -40 9 -3 2 -33 7 -65 10 -33 4 -63 9 -66 11
-12 7 -375 24 -382 18z"/>
<path d="M1176 2239 c-73 -11 -83 -19 -25 -20 24 0 55 -2 69 -4 14 -1 56 -6
95 -10 38 -4 72 -8 75 -10 4 -2 24 -6 46 -9 190 -24 518 -121 701 -208 91 -43
98 -63 79 -228 -5 -36 -9 -76 -11 -90 -8 -83 -58 -327 -81 -404 -68 -221 -164
-447 -247 -581 -53 -85 -149 -222 -199 -282 -62 -76 -71 -112 -15 -65 61 52
202 198 258 267 161 198 296 461 369 720 27 96 67 287 75 360 4 33 8 71 11 85
2 14 7 84 10 156 7 131 7 132 -17 147 -44 29 -277 107 -367 123 -14 3 -28 7
-31 9 -10 6 -191 35 -276 44 -107 11 -445 11 -519 0z"/>
<path d="M975 1776 c-72 -111 -188 -288 -258 -393 -69 -106 -121 -193 -114
-194 40 -3 188 -2 191 2 2 2 76 114 164 248 l160 244 1 -174 1 -174 -59 2 -59
2 -47 -71 c-25 -38 -44 -72 -41 -75 5 -5 267 -7 369 -4 l27 1 0 393 0 393
-102 0 -101 0 -132 -200z"/>
<path d="M1369 1963 c-1 -17 -1 -74 0 -115 l1 -33 256 1 c157 1 258 5 262 11
4 5 23 34 42 64 19 30 39 57 44 61 27 19 -29 23 -305 24 -242 0 -299 -2 -300
-13z"/>
<path d="M94 1866 c4 -55 9 -115 11 -133 3 -18 7 -48 10 -65 96 -676 420
-1191 948 -1512 145 -88 161 -94 201 -72 43 23 267 251 345 351 34 44 68 87
74 95 71 90 218 358 265 484 25 66 22 86 -5 37 -42 -76 -157 -243 -226 -329
-147 -183 -368 -393 -448 -426 -49 -19 -71 -11 -199 78 -466 322 -788 817
-940 1446 -17 74 -34 137 -37 140 -3 3 -2 -40 1 -94z"/>
<path d="M1369 1631 c0 -14 -1 -119 -2 -234 l-2 -207 25 -1 c29 -1 127 -1 152
0 15 1 16 17 15 156 l-2 155 25 0 c14 1 91 1 173 1 l147 0 1 44 c0 25 1 60 2
78 l1 32 -267 1 -267 0 -1 -25z"/>
<path d="M1008 1023 c-26 -7 -22 -19 12 -33 21 -9 30 -19 30 -36 0 -27 -7 -29
-45 -14 -24 9 -26 8 -19 -12 10 -34 34 -47 84 -48 26 0 58 -8 76 -19 30 -18
32 -19 59 -1 l27 18 -56 36 c-31 20 -61 47 -65 59 -19 49 -50 64 -103 50z"/>
<path d="M1462 1023 c-7 -3 -24 -22 -37 -42 -18 -29 -59 -59 -178 -129 -85
-51 -170 -95 -188 -98 -43 -9 -59 -21 -59 -48 1 -59 50 -69 99 -21 34 34 163
115 182 115 5 0 9 5 9 10 0 6 4 10 10 10 5 0 32 14 60 30 38 22 63 30 100 30
41 0 52 4 69 26 28 35 26 46 -5 34 -37 -15 -44 -13 -44 14 0 18 8 27 30 35 17
5 30 14 30 19 0 18 -47 27 -78 15z m-394 -320 c5 -17 -26 -29 -40 -15 -6 6 -7
15 -3 22 9 14 37 9 43 -7z"/>
<path d="M1317 794 l-28 -15 58 -38 c32 -21 66 -50 76 -64 14 -22 23 -26 45
-22 71 12 66 87 -6 99 -21 3 -55 17 -76 31 -20 14 -38 25 -39 25 -1 -1 -15 -8
-30 -16z m173 -83 c0 -28 -13 -40 -31 -31 -22 13 -14 40 12 40 10 0 19 -4 19
-9z"/>
</g>
</svg>
