<?xml version="1.0" encoding="UTF-8"?>
<svg width="69px" height="34px" viewBox="0 0 69 34" version="1.1" xmlns="http://www.w3.org/2000/svg" xmlns:xlink="http://www.w3.org/1999/xlink">
    <title>Icons/breakdown Copy 2</title>
    <g id="Dual-Pricing" stroke="none" stroke-width="1" fill="none" fill-rule="evenodd">
        <g id="Icons/breakdown-Copy-2" transform="translate(-16.000000, -8.000000)" fill="#2D3737">
            <path d="M79.1251443,35.2157422 L76.6579878,35.2157422 C76.7259557,34.8231641 76.7685333,34.4223828 76.7685333,34.0106641 C76.7685333,30.1153516 73.5994325,26.9462109 69.7041689,26.9462109 C65.8089054,26.9462109 62.6398046,30.1153516 62.6398046,34.0106641 C62.6398046,34.4223828 62.6827728,34.8231641 62.7507407,35.2157422 L38.1432375,35.2157422 C38.2112054,34.8231641 38.253783,34.4223828 38.253783,34.0106641 C38.253783,30.1153516 35.0846822,26.9462109 31.1898093,26.9462109 C27.2945457,26.9462109 24.1250543,30.1153516 24.1250543,34.0106641 C24.1250543,34.4223828 24.1680225,34.8231641 24.2355998,35.2157422 L23.1227232,35.2157422 C23.0707707,35.2157422 23.0102246,35.2192578 22.9586627,35.2243359 C22.3891386,35.2825391 19.5360495,35.4356641 19.2700372,32.8794141 C19.2649592,32.8329297 19.2583186,32.7868359 19.2493344,32.7415234 C19.2387876,32.6868359 18.2391908,27.2794141 22.5047622,24.7923047 C22.5489023,24.7669141 27.0140805,22.2348828 34.7030464,20.9493359 C34.9772617,20.9032422 35.2354615,20.7844922 35.4491307,20.6059766 C35.5432702,20.5266797 45.0259635,12.6923047 55.7285633,12.2091016 C55.7645004,12.2063672 57.2371381,12.1157422 59.4238294,12.1157422 C62.6233985,12.1157422 67.3506829,12.3098828 71.3342266,13.2602734 C72.3685886,13.5567578 73.500215,13.9743359 73.7548993,14.1501172 C73.784977,14.1735547 73.8205234,14.1993359 73.8521637,14.2204297 C74.1494255,14.4212109 81.1329315,19.2610547 81.0458232,30.5477734 C81.0594949,31.6130078 80.7298116,34.6844922 79.1251443,35.2157422 M73.6252134,34.3708203 C73.6213072,34.4145703 73.6154479,34.4579297 73.6095886,34.5008984 C73.6006043,34.5735547 73.5900576,34.6454297 73.5767765,34.7169141 C73.567011,34.7696484 73.5568549,34.8223828 73.5451363,34.8747266 C73.5314646,34.9344922 73.5158398,34.9934766 73.4994337,35.0520703 C73.0408457,36.7196484 71.5154743,37.9497266 69.7041689,37.9497266 C67.8932542,37.9497266 66.3674921,36.7196484 65.9092947,35.0520703 C65.8932793,34.9934766 65.8768733,34.9344922 65.8635922,34.8747266 C65.8518736,34.8223828 65.8413268,34.7696484 65.831952,34.7165234 C65.8186709,34.6454297 65.8081241,34.5735547 65.7987493,34.5016797 C65.7936712,34.4579297 65.7874213,34.4145703 65.7831245,34.3708203 C65.7721871,34.2516797 65.7647653,34.1321484 65.7647653,34.0106641 C65.7647653,31.8383984 67.5319306,30.0712109 69.7041689,30.0712109 C71.8764072,30.0712109 73.6435725,31.8383984 73.6435725,34.0106641 C73.6435725,34.1321484 73.6365414,34.2520703 73.6252134,34.3708203 M35.1104631,34.3708203 C35.1065569,34.4145703 35.100307,34.4579297 35.0948383,34.5008984 C35.0858541,34.5735547 35.0749167,34.6454297 35.0620262,34.7169141 C35.0522607,34.7696484 35.0421046,34.8223828 35.030386,34.8747266 C35.0167143,34.9344922 35.0010895,34.9934766 34.9846834,35.0520703 C34.5260955,36.7196484 33.000724,37.9497266 31.1898093,37.9497266 C29.3785039,37.9497266 27.8531325,36.7200391 27.3945445,35.0528516 C27.3781384,34.9938672 27.362123,34.9344922 27.3488419,34.8747266 C27.3367327,34.8223828 27.3265766,34.7696484 27.3172017,34.7165234 C27.3039206,34.6454297 27.2933739,34.5735547 27.283999,34.5016797 C27.2785303,34.4579297 27.2722804,34.4145703 27.2683742,34.3708203 C27.2574368,34.2516797 27.250015,34.1321484 27.250015,34.0106641 C27.250015,31.8383984 29.0175709,30.0712109 31.1898093,30.0712109 C33.361657,30.0712109 35.1288223,31.8383984 35.1288223,34.0106641 C35.1288223,34.1321484 35.1217911,34.2520703 35.1104631,34.3708203 M75.6290944,11.6501172 C74.7974643,11.0368359 72.9334252,10.4661328 72.1576537,10.2454297 C72.1365602,10.2395703 72.1158574,10.2341016 72.0947639,10.2290234 C64.9186822,8.50832031 55.9074673,9.06574219 55.5578624,9.08839844 C45.5568162,9.54035156 36.8600505,15.5786328 34.2362554,17.5809766 C27.6746191,12.8114453 22.6207764,11.3348828 22.4043728,11.2735547 C21.575477,11.0376172 20.7102535,11.5180859 20.4735377,12.3477734 C20.2372126,13.1778516 20.7180659,14.0423047 21.5481336,14.2786328 C21.5899299,14.2907422 25.2410559,15.3579297 30.3015392,18.6626172 C24.4199725,20.0962109 21.1036079,21.9919141 20.9364225,22.0891797 C15.0263406,25.5352734 16.0216406,32.4216016 16.1685137,33.2645703 C16.3423396,34.8008984 17.0130343,36.0794141 18.1102862,36.9641797 C19.6161266,38.1778516 21.525087,38.3657422 22.5649177,38.3657422 C22.8496797,38.3657422 23.0692082,38.3516797 23.196941,38.3407422 L25.6199574,38.3407422 C26.9140818,40.0008984 28.9265565,41.0747266 31.1898093,41.0747266 C33.4526715,41.0747266 35.4655368,40.0008984 36.7592705,38.3407422 L64.1350983,38.3407422 C65.428832,40.0008984 67.4413067,41.0747266 69.7041689,41.0747266 C71.9674217,41.0747266 73.9798964,40.0008984 75.2740208,38.3407422 L79.3321729,38.3407422 C79.4493589,38.3407422 79.5657637,38.3278516 79.6798248,38.3012891 C83.3075136,37.4735547 84.2090647,33.0290234 84.170784,30.5173047 C84.2606266,17.8723828 76.38221,12.1657422 75.6290944,11.6501172" id="Fill-1"></path>
        </g>
    </g>
</svg>
