<?xml version="1.0" encoding="UTF-8"?>
<svg width="294px" height="294px" viewBox="0 0 294 294" version="1.1" xmlns="http://www.w3.org/2000/svg" xmlns:xlink="http://www.w3.org/1999/xlink">
    <title>Artboard</title>
    <g id="Artboard" stroke="none" stroke-width="1" fill="none" fill-rule="evenodd">
        <g id="bucket" transform="translate(26.000000, 9.000000)" fill-rule="nonzero">
            <path d="M225.444062,18.6808411 C223.451993,16.3659504 220.557944,15.0243518 217.504916,15 L14.686207,15 C11.6073628,14.9712001 8.66834928,16.2845912 6.63543295,18.5982222 C4.60251662,20.9118533 3.67718015,23.99642 4.10067943,27.0477069 L32.4169658,229.891246 C33.1605946,235.15513 37.6892781,239.0518 43.0024934,239 L103.366465,239 L103.366465,219.909257 C103.326246,219.212599 103.326246,218.514199 103.366465,217.817541 L52.132511,217.817541 L26.8331,36.1824178 L205.093385,36.1824178 L181.275948,193.299447 L180.402642,198.912661 L179.582263,204.419965 C184.802897,203.577563 189.897269,202.083157 194.746032,199.971758 C197.046872,198.956859 199.478869,198.270559 201.970654,197.932996 L202.791033,192.637511 L203.611411,187.342027 L227.878733,27.180094 C228.344444,24.1273643 227.455266,21.0233113 225.444062,18.6808411 Z" id="Path" fill="#1C2E3B"></path>
            <path d="M208.705905,192 L203.906363,192 L202.244984,192 C198.741729,192.284035 195.314776,193.179803 192.118479,194.646958 C188.208254,196.354249 184.122423,197.623633 179.935028,198.432107 C175.661954,199.280389 171.316289,199.70594 166.960443,199.702647 C158.326364,199.766035 149.771679,198.045105 141.828779,194.646958 C138.124085,192.956046 134.11026,192.054745 130.040894,192 L125.241353,192 C110.960597,192 99.0889766,203.03904 98,217.331385 C98,218.019594 98,218.707803 98,219.422482 L98,241.577518 C98,256.722537 110.231789,269 125.320466,269 L130.120008,269 C134.189373,268.945255 138.203198,268.043954 141.907892,266.353042 C157.998776,259.613581 176.106709,259.613581 192.197592,266.353042 C195.902286,268.043954 199.916112,268.945255 203.985477,269 L208.758647,269 C223.816419,268.956233 236,256.69158 236,241.577518 L236,219.396012 C236,204.265613 223.780017,192 208.705905,192 Z M230.725779,241.577518 C230.711248,253.792741 220.849315,263.691499 208.679534,263.706085 L203.906363,263.706085 C200.564139,263.649307 197.269477,262.901411 194.228167,261.50911 C176.794195,254.169401 157.153062,254.169401 139.71909,261.50911 C136.677781,262.901411 133.383119,263.649307 130.040894,263.706085 L125.241353,263.706085 C113.071572,263.691499 103.209639,253.792741 103.195108,241.577518 L103.195108,219.422482 C103.15503,218.72603 103.15503,218.027837 103.195108,217.331385 C104.281011,205.979792 113.774502,197.309831 125.135869,197.293915 L129.93541,197.293915 C133.277363,197.352956 136.571572,198.10075 139.613606,199.49089 C152.083114,204.749373 165.797301,206.293156 179.117523,203.937779 C184.319867,203.095627 189.396392,201.601664 194.228167,199.49089 C196.520947,198.476293 198.944424,197.790196 201.427479,197.452733 C202.249669,197.347991 203.077579,197.294948 203.906363,197.293915 L208.705905,197.293915 C220.867145,197.293915 230.725779,207.189361 230.725779,219.396012 L230.725779,241.577518 Z" id="Shape" fill="#F2F2F2"></path>
            <path d="M209.332682,188 L203.672111,188 C199.166863,188.206536 194.745802,189.28728 190.658086,191.181324 C187.68548,192.474285 184.593885,193.478063 181.426593,194.178604 C176.875107,195.23953 172.214622,195.768948 167.539677,195.75612 C159.581826,195.828689 151.69421,194.271409 144.368365,191.181324 C139.989494,189.197719 135.240513,188.149742 130.428546,188.105168 L125.614415,188.105168 C108.41246,188.108073 94.1551473,201.360026 93,218.419764 C93,219.103354 93,219.813237 93,220.496827 L93,242.503173 C93.0291271,260.438669 107.649578,274.971048 125.693769,275 L130.5079,275 C135.318087,274.94007 140.063923,273.892787 144.447719,271.923844 C159.240234,265.825462 175.865571,265.825462 190.658086,271.923844 C195.041882,273.892787 199.787718,274.94007 204.597905,275 L209.385585,275 C227.404812,274.942089 241.985527,260.413944 242,242.503173 L242,220.470535 C241.985414,202.543562 227.368299,188.014498 209.332682,188 L209.332682,188 Z M231.419492,242.503173 C231.404917,254.636416 221.513006,264.46874 209.306231,264.483228 L204.518551,264.483228 C201.166167,264.426831 197.86149,263.683954 194.810936,262.300997 C177.323968,255.010547 157.62313,255.010547 140.136162,262.300997 C137.085608,263.683954 133.780931,264.426831 130.428546,264.483228 L125.614415,264.483228 C113.407641,264.46874 103.515729,254.636416 103.501154,242.503173 L103.501154,220.496827 C103.460954,219.805049 103.460954,219.111542 103.501154,218.419764 C104.590358,207.144355 114.112707,198.532581 125.50861,198.516772 L130.322741,198.516772 C133.674853,198.575417 136.979075,199.318192 140.030357,200.699003 C152.53777,205.922194 166.293645,207.455616 179.654358,205.116047 C184.872516,204.279547 189.964473,202.79561 194.810936,200.699003 C197.110685,199.691215 199.541528,199.009722 202.032132,198.674524 C202.856821,198.570485 203.687247,198.517798 204.518551,198.516772 L209.332682,198.516772 C221.530891,198.516772 231.419492,208.345807 231.419492,220.470535 L231.419492,242.503173 Z" id="Shape" fill="#1C2E3B"></path>
            <path d="M5.2860159,143 C3.88012416,142.987081 2.53708515,142.415308 1.55297872,141.410729 C0.55868271,140.417074 0,139.068724 0,137.6627 C0,136.256676 0.55868271,134.908326 1.55297872,133.91467 L112.908684,22.5332957 C115.014249,20.4633161 118.398412,20.4929636 120.467422,22.5995153 C122.536433,24.706067 122.506799,28.0918145 120.401234,30.1617941 L9.01905309,141.410729 C8.03494665,142.415308 6.69190765,142.987081 5.2860159,143 Z" id="Path" fill="#1C2E3B"></path>
            <path d="M117.526235,32.9999794 C110.847985,33.010484 104.821951,28.9943122 102.261431,22.8264217 C99.7009112,16.6585312 101.110905,9.55538862 105.833147,4.83314677 C110.555389,0.110904915 117.658531,-1.29908877 123.826422,1.26143134 C129.994312,3.82195145 134.010484,9.84798498 133.999979,16.5262352 C133.985629,25.6184793 126.618479,32.985629 117.526235,32.9999794 L117.526235,32.9999794 Z M117.526235,10.4363666 C115.060795,10.4258865 112.832254,11.9029228 111.881461,14.1776754 C110.930668,16.4524281 111.445243,19.0760221 113.184852,20.8230966 C114.92446,22.570171 117.545826,23.0959773 119.82463,22.1549352 C122.103433,21.2138932 123.590023,18.9916978 123.590023,16.5262352 C123.590023,13.1730617 120.879378,10.4507524 117.526235,10.4363666 L117.526235,10.4363666 Z" id="Shape" fill="#1C2E3B"></path>
        </g>
    </g>
</svg>