<svg width="24" height="24" xmlns="http://www.w3.org/2000/svg" xmlns:xlink="http://www.w3.org/1999/xlink"><defs><path d="M16.401 8.437c.001.032.005.063.005.094a4.974 4.974 0 0 1-4.969 4.969A4.975 4.975 0 0 1 6.468 8.53c0-.031.005-.062.006-.094H.187V15c0 1.034.842 1.875 1.875 1.875h18.75c1.034 0 1.875-.841 1.875-1.875V8.437h-6.286zm1.786-4.781a1.125 1.125 0 1 0 2.25 0 1.125 1.125 0 0 0-2.25 0zm-18 3.281V2.062c0-1.034.842-1.875 1.875-1.875h18.75c1.034 0 1.875.841 1.875 1.875v4.875H16.14a4.974 4.974 0 0 0-4.702-3.375 4.975 4.975 0 0 0-4.702 3.375H.187zm11.25-1.875a3.472 3.472 0 0 1 3.469 3.469A3.472 3.472 0 0 1 11.437 12 3.473 3.473 0 0 1 7.968 8.53a3.473 3.473 0 0 1 3.47-3.469z" id="a"/></defs><g transform="translate(.563 3.188)" fill="none" fill-rule="evenodd"><mask id="b" fill="#fff"><use xlink:href="#a"/></mask><use fill="#2D3737" xlink:href="#a"/><g mask="url(#b)" fill="#FFF"><path d="M-.563-3.188h24v24h-24z"/></g></g></svg>
