<?xml version="1.0" encoding="UTF-8"?>
<svg width="294px" height="294px" viewBox="0 0 294 294" version="1.1" xmlns="http://www.w3.org/2000/svg" xmlns:xlink="http://www.w3.org/1999/xlink">
    <title>Artboard</title>
    <g id="Artboard" stroke="none" stroke-width="1" fill="none" fill-rule="evenodd">
        <g id="iphone" transform="translate(57.000000, 9.000000)" fill="#1C2E3B" fill-rule="nonzero">
            <path d="M151.713974,0 L27.2860256,0 C12.2216143,0.0126821359 0.0126538591,12.2489252 0,27.347 L0,248.676 C0.0252980126,263.765092 12.2305612,275.987341 27.2860256,276 L151.713974,276 C166.769439,275.987341 178.974702,263.765092 179,248.676 L179,27.347 C178.987346,12.2489252 166.778386,0.0126821359 151.713974,0 Z M160.641026,248.676 C160.628374,253.608307 156.6353,257.6 151.713974,257.6 L27.2860256,257.6 C22.3646995,257.6 18.3716256,253.608307 18.3589744,248.676 L18.3589744,27.347 C18.3589744,22.4057083 22.3557514,18.4 27.2860256,18.4 L151.713974,18.4 C156.644249,18.4 160.641026,22.4057083 160.641026,27.347 L160.641026,248.676 Z M99.8269487,231.15 C99.8269487,236.866147 95.2034021,241.5 89.5,241.5 C83.7965979,241.5 79.1730769,236.866147 79.1730769,231.15 C79.1730769,225.433853 83.7965979,220.799974 89.5,220.799974 C92.2407391,220.793875 94.8709845,221.882352 96.8089845,223.824683 C98.7469845,225.767013 99.833034,228.403136 99.8269487,231.15 Z" id="Shape"></path>
        </g>
    </g>
</svg>