<?xml version="1.0" encoding="UTF-8"?>
<svg width="294px" height="294px" viewBox="0 0 294 294" version="1.1" xmlns="http://www.w3.org/2000/svg" xmlns:xlink="http://www.w3.org/1999/xlink">
    <title>Artboard</title>
    <g id="Artboard" stroke="none" stroke-width="1" fill="none" fill-rule="evenodd">
        <g id="Icons/remote-key" transform="translate(-56.500000, 45.000000)" fill="#2D3737">
            <path d="M314.123469,120.069742 C316.201047,114.490414 317.395258,108.327461 317.395258,101.5 C317.395258,94.6725391 316.201047,88.5095859 314.123469,82.9302578 C322.379859,85.082375 328.498406,92.5791016 328.498406,101.5 C328.498406,110.420898 322.379859,117.917625 314.123469,120.069742 M261.679688,149.641133 C235.922477,159.648398 200.015266,164.9375 157.835672,164.9375 C120.32825,164.9375 99.8633125,160.747453 89.4119844,150.932086 C79.5744141,141.694 77.7109375,126.432523 77.7109375,101.5 C77.7109375,76.5674766 79.5744141,61.306 89.4119844,52.0679141 C99.8633125,42.2525469 120.32825,38.0625 157.835672,38.0625 C200.015266,38.0625 235.922477,43.3516016 261.679688,53.3588672 C290.23132,64.4509141 304.707758,80.6480937 304.707758,101.5 C304.707758,122.351906 290.23132,138.549086 261.679688,149.641133 M309.287945,69.6020391 C308.520352,69.6020391 307.793992,69.7590469 307.112039,70.009625 C296.901773,56.1136406 280.728383,47.1483359 266.272563,41.5325312 C231.902125,28.1789375 188.334836,25.375 157.835672,25.375 C116.258734,25.375 93.9176328,30.4293828 80.7258047,42.8203125 C66.2224063,56.4403437 65.0234375,78.3484844 65.0234375,101.5 C65.0234375,124.651516 66.2224063,146.559656 80.7258047,160.179688 C93.9176328,172.570617 116.258734,177.625 157.835672,177.625 C188.334836,177.625 231.902125,174.821063 266.272563,161.469055 C280.728383,155.851664 296.901773,146.886359 307.112039,132.990375 C307.793992,133.240953 308.520352,133.397961 309.287945,133.397961 C326.877578,133.397961 341.185906,119.089633 341.185906,101.5 C341.185906,83.9103672 326.877578,69.6020391 309.287945,69.6020391 M209.009117,132.336969 L209.009117,70.6614453 C232.999594,71.8080781 269.458711,77.5031797 269.458711,101.5 C269.458711,125.49682 232.999594,131.190336 209.009117,132.336969 M158.780891,101.5 C158.780891,88.8109141 159.584961,81.1555937 163.824172,77.0511875 C168.428148,72.5962891 178.500438,70.5393281 196.321617,70.4108672 L196.321617,132.589133 C178.500438,132.459086 168.428148,130.402125 163.824172,125.947227 C159.584961,121.84282 158.780891,114.189086 158.780891,101.5 M198.096281,57.7106797 C174.990758,57.7106797 162.503086,60.6732109 155.001602,67.9352188 C146.764242,75.9077266 146.093391,87.8545938 146.093391,101.5 C146.093391,115.146992 146.764242,127.092273 155.001602,135.064781 C162.503086,142.326789 174.990758,145.287734 198.096281,145.287734 C271.227031,145.287734 282.146211,117.854187 282.146211,101.5 C282.146211,85.1458125 271.227031,57.7106797 198.096281,57.7106797 M110.149703,133.907047 C105.840711,133.907047 102.334203,130.400539 102.334203,126.091547 C102.334203,121.782555 105.840711,118.276047 110.149703,118.276047 C114.458695,118.276047 117.963617,121.782555 117.963617,126.091547 C117.963617,130.400539 114.458695,133.907047 110.149703,133.907047 M110.149703,105.588547 C98.8451406,105.588547 89.6467031,114.786984 89.6467031,126.091547 C89.6467031,137.396109 98.8451406,146.594547 110.149703,146.594547 C121.454266,146.594547 130.651117,137.396109 130.651117,126.091547 C130.651117,114.786984 121.454266,105.588547 110.149703,105.588547" id="icon"></path>
        </g>
    </g>
</svg>