<?xml version="1.0" encoding="UTF-8"?>
<svg width="294px" height="294px" viewBox="0 0 294 294" version="1.1" xmlns="http://www.w3.org/2000/svg" xmlns:xlink="http://www.w3.org/1999/xlink">
    <title>Artboard</title>
    <g id="Artboard" stroke="none" stroke-width="1" fill="none" fill-rule="evenodd">
        <g id="steering-wheel" transform="translate(12.000000, 12.000000)" fill="#1C2E3B" fill-rule="nonzero">
            <path d="M230.457472,39.5374663 C205.187591,14.1378353 170.807726,-0.0984409829 134.979039,0.000512423107 L134.979039,0.000512423107 C70.5799629,0.0136727443 15.1571804,45.5142698 2.60316878,108.678019 C-9.9508429,171.841769 23.8601273,235.077975 83.3597893,259.716048 C142.859451,284.354121 211.477533,263.532516 247.252288,209.984189 C283.027044,156.435861 275.995434,85.0736743 230.457472,39.5374663 Z M134.979039,18.0541946 C181.865603,18.0486701 224.227844,46.0326904 242.62076,89.1611095 C223.078259,86.4080015 205.09284,79.4123992 188.890165,73.0937907 C171.965366,66.4818183 152.783927,59.0123204 134.979039,59.0123204 C117.17415,59.0123204 98.2183755,66.4818183 81.2935765,73.0937907 C65.8355935,79.1190353 47.240881,86.3628686 27.3598838,89.1159766 C45.7586236,46.0087872 88.1097167,18.0440255 134.979039,18.0541946 Z M30.7448436,188.092466 L75.2232153,188.092466 C83.8549748,188.104894 90.8493008,195.099239 90.8617296,203.731022 L90.8617296,243.335157 C64.8683087,232.691595 43.5431524,213.095453 30.7448436,188.092466 L30.7448436,188.092466 Z M108.914848,249.021905 L108.914848,203.731022 C108.902401,185.128755 93.8254323,170.051746 75.2232153,170.039298 L23.3204984,170.039298 C17.0457104,149.905051 16.3129369,128.451881 21.1992569,107.936403 C46.5187562,106.018254 69.2882525,97.149636 87.8378321,89.8832362 C104.063073,83.5646277 120.807341,77.042921 135.024172,77.042921 C149.241003,77.042921 166.143235,83.5871941 182.368476,89.8832362 C200.895489,97.1045031 223.619853,105.950555 248.82652,107.936403 C253.649878,128.44312 252.870454,149.869537 246.56988,169.971599 L194.667163,169.971599 C176.06061,170.04596 161.002433,185.124336 160.952964,203.731022 L160.952964,249.044471 C143.829115,252.970856 126.038698,252.970856 108.914848,249.044471 L108.914848,249.021905 Z M179.006083,243.335157 L179.006083,203.731022 C179.018533,195.090437 186.026592,188.092466 194.667163,188.092466 L239.190668,188.092466 C226.393461,213.121005 205.036787,232.724033 179.006083,243.335157 L179.006083,243.335157 Z M167.722883,135.016154 C167.722883,116.947581 153.077646,102.298948 135.009122,102.294796 C116.940598,102.290646 102.288637,116.932549 102.280327,135.00112 C102.272025,153.069691 116.910519,167.725058 134.979039,167.73752 C153.045344,167.725073 167.68787,153.082507 167.700317,135.016154 L167.722883,135.016154 Z M134.979039,149.684352 C126.878038,149.684352 120.31088,143.117176 120.31088,135.016154 C120.31088,126.915132 126.878038,120.347956 134.979039,120.347956 C143.08004,120.347956 149.647198,126.915132 149.647198,135.016154 C149.647198,143.117176 143.08004,149.684352 134.979039,149.684352 Z" id="Shape"></path>
        </g>
    </g>
</svg>