<?xml version="1.0" encoding="UTF-8"?>
<svg width="294px" height="294px" viewBox="0 0 294 294" version="1.1" xmlns="http://www.w3.org/2000/svg" xmlns:xlink="http://www.w3.org/1999/xlink">
    <title>Artboard</title>
    <g id="Artboard" stroke="none" stroke-width="1" fill="none" fill-rule="evenodd">
        <g id="to-go-cup" transform="translate(61.000000, 16.000000)" fill="#1C2E3B" fill-rule="nonzero">
            <path d="M162.991963,33.7548524 L159.089966,33.7548524 L159.089966,8.8828559 C159.089966,3.97699005 155.096862,0 150.171117,0 L21.7396941,0 C16.8139499,0 12.8208452,3.97699005 12.8208452,8.8828559 L12.8208452,33.7548524 L8.91884885,33.7548524 C3.99310464,33.7548524 0,37.7318425 0,42.6377083 L0,90.0055374 C0,94.9114032 3.99310464,98.8883933 8.91884885,98.8883933 L11.5945035,98.8883933 L26.1322271,253.938643 C26.5596091,258.521073 30.4303135,262.019562 35.051076,261.999918 L136.948924,261.999918 C141.569686,262.019562 145.440391,258.521073 145.867773,253.938643 L160.405496,98.8883933 L163.081151,98.8883933 C168.006895,98.8883933 172,94.9114032 172,90.0055374 L172,42.6377083 C172,40.2663568 171.048224,37.993401 169.356276,36.3249652 C167.664328,34.6565295 165.372804,33.7311389 162.991963,33.7548524 Z M30.6585429,17.7657118 L141.252269,17.7657118 L141.252269,33.7548524 L30.6585429,33.7548524 L30.6585429,17.7657118 Z M128.76588,244.278537 L43.1226342,244.278537 L29.4990926,98.8883933 L142.411719,98.8883933 L128.76588,244.278537 Z M154.073114,81.1226815 L17.8376977,81.1226815 L17.8376977,51.5205642 L154.073114,51.5205642 L154.073114,81.1226815 Z" id="Shape"></path>
        </g>
    </g>
</svg>