<?xml version="1.0" encoding="UTF-8"?>
<svg width="294px" height="294px" viewBox="0 0 294 294" version="1.1" xmlns="http://www.w3.org/2000/svg" xmlns:xlink="http://www.w3.org/1999/xlink">
    <title>Artboard</title>
    <g id="Artboard" stroke="none" stroke-width="1" fill="none" fill-rule="evenodd">
        <g id="tyre" transform="translate(64.000000, 13.000000)" fill="#1C2E3B" fill-rule="nonzero">
            <path d="M166,40.8690958 C165.996963,40.3772794 165.959093,39.8862912 165.886674,39.3997976 C163.620153,16.7952092 128.738394,0 83,0 C37.2616057,0 2.40251229,16.7726046 0.113326051,39.3997976 C0.0409069079,39.8862912 0.00303730196,40.3772794 0,40.8690958 L0,226.226721 C0,250.029352 35.675041,268 83,268 C130.324959,268 166,249.916329 166,226.226721 C166,225.97807 166,225.752024 166,225.525978 C166,225.299933 166,225.051282 166,224.802632 L166,40.8690958 Z M53.9205352,109.315789 L18.1321682,91.8424426 L18.1321682,52.17139 L53.9205352,69.6447368 L53.9205352,109.315789 Z M53.9205352,119.374831 L53.9205352,159.045884 L18.1321682,141.572537 L18.1321682,101.901484 L53.9205352,119.374831 Z M18.1321682,151.631579 L53.9205352,169.104926 L53.9205352,208.798583 L18.1321682,191.302632 L18.1321682,151.631579 Z M62.9866193,19.3721323 C68.1226342,18.7036619 73.2894266,18.2962527 78.4669579,18.1514845 L78.4669579,249.893725 C73.2894266,249.748957 68.1226342,249.341547 62.9866193,248.673077 L62.9866193,19.3721323 Z M87.5330421,18.1514845 C92.7105254,18.2971465 97.8772724,18.7045522 103.013381,19.3721323 L103.013381,248.673077 C97.8772724,249.340657 92.7105254,249.748063 87.5330421,249.893725 L87.5330421,18.1514845 Z M112.079465,68.8761808 L147.867832,51.402834 L147.867832,91.0738866 L112.079465,108.547233 L112.079465,68.8761808 Z M112.079465,168.33637 L147.867832,150.863023 L147.867832,190.534076 L112.079465,208.030027 L112.079465,168.33637 Z M147.867832,140.803981 L112.079465,158.277328 L112.079465,118.606275 L147.867832,101.132928 L147.867832,140.803981 Z M147.867832,41.3437922 L112.079465,58.817139 L112.079465,20.8640351 C134.087384,25.3623482 147.323867,34.3815789 147.845167,41.3437922 L147.867832,41.3437922 Z M53.9205352,20.8640351 L53.9205352,59.5630904 L18.1321682,42.0897436 L18.1321682,41.7732794 C18.1321682,34.765857 31.4593119,25.5205803 53.9205352,20.8640351 Z M18.1321682,226.27193 L18.1321682,201.406883 L53.9205352,218.880229 L53.9205352,247.181174 C31.4593119,242.524629 18.1321682,233.279352 18.1321682,226.27193 Z M147.867832,226.27193 C147.867832,233.279352 134.540688,242.592443 112.079465,247.15857 L112.079465,218.089069 L147.867832,200.615722 L147.867832,224.847841 C147.867832,225.096491 147.867832,225.322537 147.867832,225.571188 C147.867832,225.819838 147.867832,226.023279 147.867832,226.27193 Z" id="Shape"></path>
        </g>
    </g>
</svg>