<svg width="100" height="100" viewBox="0 0 100 100" fill="none" xmlns="http://www.w3.org/2000/svg">
<rect width="100" height="100" rx="10" fill="#0181FF"/>
<path d="M74 44H76C77.104 44 78 43.104 78 42C78 40.896 77.104 40 76 40H71.132L68.044 34.854C66.248 31.86 62.962 30 59.47 30H40.53C37.038 30 33.752 31.86 31.956 34.854L28.868 40H24C22.896 40 22 40.896 22 42C22 43.104 22.896 44 24 44H26L24.8 45.6C22.994 48.008 22 50.99 22 54V64C22 67.308 24.692 70 28 70H32C35.308 70 38 67.308 38 64H62C62 67.308 64.692 70 68 70H72C75.308 70 78 67.308 78 64V54C78 50.99 77.006 48.006 75.2 45.6L74 44ZM35.386 36.914C36.464 35.118 38.434 34 40.53 34H59.472C61.568 34 63.538 35.116 64.616 36.914L67.304 41.394L65.914 42.32C64.266 43.418 62.348 44 60.366 44H39.632C37.652 44 35.734 43.42 34.086 42.322L32.696 41.394L35.384 36.912L35.386 36.914ZM74.002 64C74.002 65.102 73.104 66 72.002 66H68.002C66.9 66 66.002 65.102 66.002 64V62C66.002 60.896 65.106 60 64.002 60H36C34.896 60 34 60.896 34 62V64C34 65.102 33.102 66 32 66H28C26.898 66 26 65.102 26 64V54C26 51.85 26.71 49.718 28 48L30.464 44.714L31.868 45.65C34.176 47.188 36.86 48 39.632 48H60.366C63.14 48 65.824 47.186 68.132 45.648L69.534 44.714L71.998 48C73.288 49.718 73.998 51.85 73.998 54V64H74.002Z" fill="white"/>
<path d="M68 56C69.1046 56 70 55.1046 70 54C70 52.8954 69.1046 52 68 52C66.8954 52 66 52.8954 66 54C66 55.1046 66.8954 56 68 56Z" fill="white"/>
<path d="M32 56C33.1046 56 34 55.1046 34 54C34 52.8954 33.1046 52 32 52C30.8954 52 30 52.8954 30 54C30 55.1046 30.8954 56 32 56Z" fill="white"/>
</svg>
