<svg width="196" height="53" viewBox="0 0 196 53" fill="none" xmlns="http://www.w3.org/2000/svg">
<g clip-path="url(#clip0_10061_18304)">
<path d="M29.4621 3.86227C30.5245 3.24776 31.8785 3.6123 32.493 4.67468C33.1076 5.73707 32.743 7.09109 31.6806 7.70561C30.6183 8.32012 29.2642 7.95558 28.6497 6.89319C28.0352 5.83081 28.3997 4.47679 29.4621 3.86227ZM16.3906 3.56022C15.1616 3.56022 14.1721 4.5497 14.1721 5.77873C14.1721 7.00776 15.1616 7.99724 16.3906 7.99724C17.6197 7.99724 18.6091 7.00776 18.6091 5.77873C18.6091 4.5497 17.6197 3.56022 16.3906 3.56022ZM28.9413 14.9027C29.4621 15.8089 30.6183 16.1109 31.5244 15.5902C32.4306 15.0694 32.7326 13.9133 32.2118 13.0071C31.691 12.101 30.5349 11.7989 29.6288 12.3197C28.733 12.8509 28.4206 13.9966 28.9413 14.9027ZM24.7543 18.7877C25.1605 18.0899 24.921 17.1837 24.2127 16.7775C23.5149 16.3713 22.6087 16.6109 22.2025 17.3191C21.7963 18.017 22.0358 18.9231 22.7441 19.3293C23.4524 19.7356 24.3481 19.496 24.7543 18.7877ZM24.9418 2.5395C25.4105 1.72709 25.1293 0.695949 24.3273 0.22725C23.5253 -0.241449 22.4837 0.0397714 22.015 0.841768C21.5463 1.64376 21.8275 2.68532 22.6295 3.15402C23.4315 3.62272 24.4835 3.3415 24.9418 2.5395ZM16.3906 12.0697C15.3491 12.0697 14.5054 12.9134 14.5054 13.9549C14.5054 14.9965 15.3491 15.8401 16.3906 15.8401C17.4322 15.8401 18.2758 14.9965 18.2758 13.9549C18.2758 12.9134 17.4322 12.0697 16.3906 12.0697ZM23.4836 13.1321C25.2855 13.1321 26.7437 11.6739 26.7437 9.87204C26.7437 8.07015 25.2855 6.61197 23.4836 6.61197C21.6817 6.61197 20.2235 8.07015 20.2235 9.87204C20.2235 11.6739 21.6817 13.1321 23.4836 13.1321ZM9.30806 12.0905C10.5371 12.0905 11.5266 11.1011 11.5266 9.87204C11.5266 8.643 10.5371 7.65353 9.30806 7.65353C8.07903 7.65353 7.08955 8.643 7.08955 9.87204C7.08955 11.1011 8.08944 12.0905 9.30806 12.0905ZM0.298619 21.0479C-0.315897 22.1103 0.0486469 23.4643 1.11103 24.0788C2.17342 24.6933 3.52744 24.3288 4.14195 23.2664C4.75647 22.204 4.39193 20.85 3.32954 20.2355C2.26716 19.621 0.913136 19.9855 0.298619 21.0479ZM17.6613 21.4125C17.2551 20.7146 16.3594 20.4646 15.6511 20.8708C14.9533 21.2771 14.7033 22.1728 15.1095 22.881C15.5157 23.5789 16.4115 23.8289 17.1197 23.4227C17.828 23.0164 18.0675 22.1207 17.6613 21.4125ZM3.68367 13.1217C3.21497 12.3093 2.18383 12.0385 1.37142 12.5072C0.559008 12.9759 0.288205 14.007 0.756904 14.8194C1.2256 15.6318 2.25674 15.9026 3.06915 15.4339C3.87115 14.9652 4.15237 13.9341 3.68367 13.1217ZM7.66241 25.2974C7.14163 26.2036 7.45409 27.3493 8.34983 27.8805C9.25598 28.4013 10.4017 28.0888 10.9329 27.1931C11.4537 26.2869 11.1412 25.1412 10.2455 24.61C9.33931 24.0892 8.18318 24.4017 7.66241 25.2974ZM12.1307 19.6835C13.0368 18.1211 12.4952 16.1214 10.9329 15.2256C9.37055 14.3195 7.37077 14.8611 6.47503 16.4234C5.56888 17.9857 6.11049 19.9855 7.67282 20.8813C9.23515 21.777 11.2245 21.2458 12.1307 19.6835ZM4.14195 31.4426C4.75647 30.3802 4.39193 29.0262 3.32954 28.4117C2.26716 27.7972 0.913136 28.1617 0.298619 29.2241C-0.315897 30.2865 0.0486469 31.6405 1.11103 32.255C2.17342 32.8695 3.52744 32.505 4.14195 31.4426ZM7.3916 43.733C8.00612 44.7953 9.36014 45.1599 10.4225 44.5454C11.4849 43.9308 11.8495 42.5768 11.2349 41.5144C10.6204 40.4521 9.2664 40.0875 8.20401 40.702C7.14163 41.3061 6.77708 42.6706 7.3916 43.733ZM16.3906 28.87C15.5782 28.87 14.922 29.5262 14.922 30.3386C14.922 31.151 15.5782 31.8072 16.3906 31.8072C17.203 31.8072 17.8592 31.151 17.8592 30.3386C17.8592 29.5262 17.203 28.87 16.3906 28.87ZM2.21508 36.8379C1.27768 36.8379 0.527763 37.5982 0.527763 38.5252C0.527763 39.4626 1.2881 40.2125 2.21508 40.2125C3.15248 40.2125 3.9024 39.4522 3.9024 38.5252C3.91281 37.5878 3.15248 36.8379 2.21508 36.8379ZM14.7554 39.4626C15.2762 40.3687 16.4323 40.6708 17.3384 40.15C18.2446 39.6292 18.5466 38.4731 18.0259 37.567C17.5051 36.6608 16.349 36.3587 15.4428 36.8795C14.5471 37.4107 14.2346 38.5668 14.7554 39.4626ZM12.1307 32.807C11.2245 31.2447 9.23515 30.7135 7.67282 31.6093C6.11049 32.505 5.5793 34.5048 6.47503 36.0671C7.38119 37.6294 9.37055 38.1606 10.9329 37.2649C12.4952 36.3587 13.0264 34.3694 12.1307 32.807ZM18.3175 45.5973C17.703 44.5349 16.349 44.1704 15.2866 44.7849C14.2242 45.3994 13.8597 46.7535 14.4742 47.8158C15.0887 48.8782 16.4427 49.2428 17.5051 48.6283C18.5675 48.0137 18.9216 46.6597 18.3175 45.5973ZM30.5766 48.9303C31.8056 48.9303 32.7951 47.9408 32.7951 46.7118C32.7951 45.4828 31.8056 44.4933 30.5766 44.4933C29.3476 44.4933 28.3581 45.4828 28.3581 46.7118C28.3581 47.9408 29.3476 48.9303 30.5766 48.9303ZM22.2129 33.7028C21.8067 34.4006 22.0463 35.3068 22.7545 35.713C23.4524 36.1192 24.3585 35.8796 24.7647 35.1714C25.1709 34.4735 24.9314 33.5674 24.2231 33.1612C23.5149 32.755 22.6191 32.9945 22.2129 33.7028ZM22.0254 49.951C21.5567 50.7634 21.838 51.7946 22.6399 52.2633C23.4524 52.732 24.4835 52.4508 24.9522 51.6488C25.4209 50.8468 25.1397 49.8052 24.3377 49.3365C23.5357 48.8678 22.4837 49.149 22.0254 49.951ZM30.5766 40.4104C31.6181 40.4104 32.4618 39.5667 32.4618 38.5252C32.4618 37.4836 31.6181 36.64 30.5766 36.64C29.535 36.64 28.6914 37.4836 28.6914 38.5252C28.6914 39.5667 29.535 40.4104 30.5766 40.4104ZM23.4836 39.3584C21.6817 39.3584 20.2235 40.8166 20.2235 42.6185C20.2235 44.4204 21.6817 45.8785 23.4836 45.8785C25.2855 45.8785 26.7437 44.4204 26.7437 42.6185C26.7437 40.8166 25.2855 39.3584 23.4836 39.3584ZM37.6592 40.4C36.4301 40.4 35.4406 41.3895 35.4406 42.6185C35.4406 43.8475 36.4301 44.837 37.6592 44.837C38.8882 44.837 39.8777 43.8475 39.8777 42.6185C39.8777 41.3895 38.8778 40.4 37.6592 40.4ZM46.6686 31.4426C47.2831 30.3802 46.9186 29.0262 45.8562 28.4117C44.7938 27.7972 43.4398 28.1617 42.8253 29.2241C42.2107 30.2865 42.5753 31.6405 43.6377 32.255C44.7001 32.8695 46.0541 32.505 46.6686 31.4426ZM29.3059 31.0781C29.7121 31.7759 30.6078 32.0259 31.3161 31.6197C32.0139 31.2135 32.2639 30.3177 31.8577 29.6095C31.4515 28.9116 30.5558 28.6617 29.8475 29.0679C29.1392 29.4741 28.8997 30.3698 29.3059 31.0781ZM43.2835 39.3688C43.7522 40.1813 44.7834 40.4521 45.5958 39.9834C46.4082 39.5147 46.679 38.4835 46.2103 37.6711C45.7416 36.8587 44.7105 36.5879 43.8981 37.0566C43.0961 37.5253 42.8148 38.5564 43.2835 39.3688ZM39.3048 27.1931C39.8256 26.2869 39.5131 25.1412 38.6174 24.61C37.7112 24.0892 36.5655 24.4017 36.0343 25.2974C35.5136 26.2036 35.826 27.3493 36.7218 27.8805C37.6279 28.4013 38.784 28.0888 39.3048 27.1931ZM34.8365 32.807C33.9304 34.3694 34.472 36.3692 36.0343 37.2649C37.5967 38.1711 39.5964 37.6294 40.4922 36.0671C41.3983 34.5048 40.8567 32.505 39.2944 31.6093C37.7425 30.7031 35.7427 31.2447 34.8365 32.807ZM42.8253 21.0479C42.2107 22.1103 42.5753 23.4643 43.6377 24.0788C44.7001 24.6933 46.0541 24.3288 46.6686 23.2664C47.2831 22.204 46.9186 20.85 45.8562 20.2355C44.7938 19.621 43.4398 19.9855 42.8253 21.0479ZM39.5756 8.75758C38.9611 7.69519 37.6071 7.33065 36.5447 7.94516C35.4823 8.55968 35.1178 9.9137 35.7323 10.9761C36.3468 12.0385 37.7008 12.403 38.7632 11.7885C39.8256 11.1844 40.1901 9.81996 39.5756 8.75758ZM30.5766 23.6205C31.389 23.6205 32.0452 22.9644 32.0452 22.152C32.0452 21.3395 31.389 20.6834 30.5766 20.6834C29.7642 20.6834 29.108 21.3395 29.108 22.152C29.108 22.9644 29.7642 23.6205 30.5766 23.6205ZM44.7521 15.6527C45.6895 15.6527 46.4395 14.8923 46.4395 13.9653C46.4395 13.0279 45.6791 12.278 44.7521 12.278C43.8252 12.278 43.0648 13.0384 43.0648 13.9653C43.0544 14.9027 43.8147 15.6527 44.7521 15.6527ZM34.8365 19.6835C35.7427 21.2458 37.7321 21.777 39.2944 20.8813C40.8567 19.9751 41.3879 17.9857 40.4922 16.4234C39.586 14.8611 37.5967 14.3299 36.0343 15.2256C34.472 16.1318 33.9408 18.1211 34.8365 19.6835Z" fill="#030B1C"/>
</g>
<g clip-path="url(#clip1_10061_18304)">
<path d="M57.1388 33.5854H53.7773L60.0992 19.3915H63.3481L69.6925 33.5854H66.2454L61.0545 21.0542H62.3522L57.1388 33.5854ZM66.0021 30.5438H56.936L57.8102 28.0475H65.1099L66.0021 30.5438ZM77.4789 33.8287C75.4632 33.8287 73.8876 33.267 72.7521 32.1435C71.6196 31.023 71.0533 29.4219 71.0533 27.3401V19.3915H74.3337V27.2184C74.3337 28.5702 74.6115 29.5435 75.1673 30.1383C75.72 30.7331 76.4966 31.0305 77.4969 31.0305C78.5002 31.0305 79.2783 30.7331 79.831 30.1383C80.3867 29.5435 80.6646 28.5702 80.6646 27.2184V19.3915H83.9089V27.3401C83.9089 29.4219 83.3412 31.023 82.2056 32.1435C81.0701 33.267 79.4945 33.8287 77.4789 33.8287ZM93.376 33.5854H90.0911V22.0681H85.5491V19.3915H97.918V22.0681H93.376V33.5854ZM106.579 33.8287C105.455 33.8287 104.417 33.6455 103.465 33.279C102.513 32.9155 101.688 32.4018 100.991 31.7379C100.294 31.0771 99.7535 30.3005 99.369 29.4083C98.9845 28.5162 98.7922 27.5429 98.7922 26.4885C98.7922 25.4341 98.9845 24.4608 99.369 23.5686C99.7535 22.6764 100.297 21.8984 101 21.2345C101.703 20.5736 102.528 20.0599 103.474 19.6934C104.42 19.3299 105.448 19.1482 106.556 19.1482C107.68 19.1482 108.71 19.3299 109.647 19.6934C110.587 20.0599 111.406 20.5736 112.103 21.2345C112.8 21.8984 113.344 22.6734 113.734 23.5596C114.128 24.4427 114.324 25.419 114.324 26.4885C114.324 27.5429 114.128 28.5192 113.734 29.4173C113.344 30.3155 112.8 31.0936 112.103 31.7515C111.406 32.4063 110.587 32.9155 109.647 33.279C108.71 33.6455 107.687 33.8287 106.579 33.8287ZM106.556 31.0305C107.193 31.0305 107.777 30.9223 108.309 30.7061C108.844 30.4898 109.314 30.1789 109.719 29.7733C110.125 29.3678 110.439 28.8871 110.661 28.3314C110.886 27.7787 110.999 27.1644 110.999 26.4885C110.999 25.8126 110.886 25.1967 110.661 24.641C110.439 24.0883 110.128 23.6091 109.728 23.2036C109.332 22.798 108.863 22.4871 108.322 22.2708C107.782 22.0546 107.193 21.9464 106.556 21.9464C105.922 21.9464 105.338 22.0546 104.803 22.2708C104.268 22.4871 103.798 22.798 103.393 23.2036C102.987 23.6091 102.673 24.0883 102.451 24.641C102.229 25.1967 102.118 25.8126 102.118 26.4885C102.118 27.1493 102.229 27.7606 102.451 28.3224C102.673 28.8841 102.984 29.3678 103.384 29.7733C103.783 30.1789 104.253 30.4898 104.794 30.7061C105.335 30.9223 105.922 31.0305 106.556 31.0305ZM119.835 28.4125V25.7765H126.648V28.4125H119.835ZM120.083 22.0275V33.5854H116.798V19.3915H127.522V22.0275H120.083ZM136.057 33.8287C134.044 33.8287 132.47 33.267 131.334 32.1435C130.199 31.023 129.631 29.4219 129.631 27.3401V19.3915H132.916V27.2184C132.916 28.5702 133.192 29.5435 133.745 30.1383C134.301 30.7331 135.079 31.0305 136.079 31.0305C137.08 31.0305 137.856 30.7331 138.409 30.1383C138.965 29.5435 139.242 28.5702 139.242 27.2184V19.3915H142.487V27.3401C142.487 29.4219 141.919 31.023 140.784 32.1435C139.648 33.267 138.072 33.8287 136.057 33.8287ZM150.395 33.8287C149.259 33.8287 148.172 33.677 147.132 33.3736C146.09 33.0672 145.25 32.6707 144.614 32.184L145.731 29.7102C146.338 30.1428 147.057 30.4988 147.889 30.7782C148.722 31.0545 149.563 31.1927 150.413 31.1927C151.062 31.1927 151.586 31.1281 151.985 30.999C152.385 30.8698 152.679 30.691 152.869 30.4627C153.058 30.2314 153.152 29.9671 153.152 29.6697C153.152 29.2912 153.004 28.9908 152.706 28.7685C152.409 28.5462 152.017 28.3644 151.53 28.2233C151.044 28.0791 150.506 27.9439 149.917 27.8177C149.328 27.6885 148.741 27.5293 148.155 27.3401C147.567 27.1508 147.029 26.9075 146.542 26.6101C146.056 26.3127 145.661 25.9207 145.357 25.4341C145.051 24.9474 144.898 24.3256 144.898 23.5686C144.898 22.7575 145.118 22.017 145.56 21.3471C145.998 20.6772 146.661 20.144 147.547 19.7475C148.433 19.348 149.545 19.1482 150.881 19.1482C151.774 19.1482 152.652 19.2533 153.517 19.4636C154.383 19.6709 155.146 19.9848 155.807 20.4054L154.793 22.8972C154.132 22.5187 153.471 22.2393 152.81 22.0591C152.146 21.8758 151.497 21.7842 150.863 21.7842C150.227 21.7842 149.705 21.8578 149.3 22.005C148.894 22.1552 148.604 22.3489 148.43 22.5863C148.253 22.8206 148.164 23.0939 148.164 23.4064C148.164 23.7698 148.313 24.0642 148.61 24.2895C148.908 24.5118 149.3 24.6906 149.787 24.8257C150.273 24.9609 150.811 25.0961 151.4 25.2313C151.988 25.3665 152.576 25.5212 153.161 25.6954C153.75 25.8726 154.288 26.11 154.775 26.4073C155.261 26.7047 155.656 27.0968 155.96 27.5834C156.263 28.0701 156.415 28.6844 156.415 29.4264C156.415 30.2254 156.193 30.9554 155.748 31.6163C155.3 32.2802 154.635 32.8149 153.752 33.2204C152.866 33.6259 151.747 33.8287 150.395 33.8287ZM161.953 33.5854H158.668V19.3915H161.953V33.5854ZM172.213 33.8287C171.089 33.8287 170.051 33.6455 169.099 33.279C168.147 32.9155 167.322 32.4018 166.625 31.7379C165.928 31.0771 165.388 30.3005 165.003 29.4083C164.619 28.5162 164.426 27.5429 164.426 26.4885C164.426 25.4341 164.619 24.4608 165.003 23.5686C165.388 22.6764 165.931 21.8984 166.634 21.2345C167.34 20.5736 168.166 20.0599 169.113 19.6934C170.056 19.3299 171.082 19.1482 172.19 19.1482C173.314 19.1482 174.346 19.3299 175.286 19.6934C176.223 20.0599 177.04 20.5736 177.737 21.2345C178.434 21.8984 178.978 22.6734 179.368 23.5596C179.762 24.4427 179.959 25.419 179.959 26.4885C179.959 27.5429 179.762 28.5192 179.368 29.4173C178.978 30.3155 178.434 31.0936 177.737 31.7515C177.04 32.4063 176.223 32.9155 175.286 33.279C174.346 33.6455 173.321 33.8287 172.213 33.8287ZM172.19 31.0305C172.827 31.0305 173.413 30.9223 173.948 30.7061C174.479 30.4898 174.949 30.1789 175.358 29.7733C175.761 29.3678 176.074 28.8871 176.3 28.3314C176.522 27.7787 176.633 27.1644 176.633 26.4885C176.633 25.8126 176.522 25.1967 176.3 24.641C176.074 24.0883 175.764 23.6091 175.367 23.2036C174.967 22.798 174.497 22.4871 173.957 22.2708C173.416 22.0546 172.827 21.9464 172.19 21.9464C171.556 21.9464 170.972 22.0546 170.437 22.2708C169.906 22.4871 169.437 22.798 169.032 23.2036C168.626 23.6091 168.311 24.0883 168.085 24.641C167.863 25.1967 167.752 25.8126 167.752 26.4885C167.752 27.1493 167.863 27.7606 168.085 28.3224C168.311 28.8841 168.622 29.3678 169.018 29.7733C169.418 30.1789 169.888 30.4898 170.428 30.7061C170.969 30.9223 171.556 31.0305 172.19 31.0305ZM185.677 33.5854H182.432V19.3915H185.15L193.526 29.6111H192.206V19.3915H195.45V33.5854H192.751L184.356 23.3658H185.677V33.5854Z" fill="#030B1C"/>
</g>
<defs>
<clipPath id="clip0_10061_18304">
<rect width="46.9672" height="52.4905" fill="white"/>
</clipPath>
<clipPath id="clip1_10061_18304">
<rect width="141.673" height="14.6805" fill="white" transform="translate(53.7773 19.1482)"/>
</clipPath>
</defs>
</svg>
