<svg width="32" height="32" viewBox="0 0 32 32" fill="none" xmlns="http://www.w3.org/2000/svg">
<circle cx="16" cy="16" r="16" fill="#0072FF" fill-opacity="0.1"/>
<path d="M18.2186 21.2802C18.8505 21.4636 19.5051 21.5564 20.1631 21.5557C21.2211 21.5572 22.2655 21.316 23.2157 20.8505C23.2438 20.1866 23.0546 19.5316 22.677 18.9848C22.2993 18.4381 21.7537 18.0293 21.1228 17.8205C20.492 17.6118 19.8102 17.6143 19.181 17.8279C18.5517 18.0414 18.0092 18.4543 17.6357 19.0039M18.2186 21.2802V21.2779C18.2186 20.4535 18.0068 19.6779 17.6357 19.0039M18.2186 21.2802V21.3587C16.7931 22.2173 15.1598 22.6696 13.4957 22.6668C11.769 22.6668 10.1534 22.1891 8.77418 21.3587L8.77344 21.2779C8.77287 20.2294 9.1213 19.2105 9.7638 18.3818C10.4063 17.5532 11.3063 16.962 12.3219 16.7013C13.3376 16.4407 14.4111 16.5256 15.3732 16.9425C16.3353 17.3593 17.1313 18.0846 17.6357 19.0039M15.9964 11.8335C15.9964 12.4965 15.733 13.1324 15.2642 13.6013C14.7953 14.0701 14.1594 14.3335 13.4964 14.3335C12.8334 14.3335 12.1975 14.0701 11.7286 13.6013C11.2598 13.1324 10.9964 12.4965 10.9964 11.8335C10.9964 11.1705 11.2598 10.5346 11.7286 10.0657C12.1975 9.59689 12.8334 9.3335 13.4964 9.3335C14.1594 9.3335 14.7953 9.59689 15.2642 10.0657C15.733 10.5346 15.9964 11.1705 15.9964 11.8335ZM22.1075 13.5002C22.1075 14.0159 21.9027 14.5104 21.538 14.8751C21.1733 15.2397 20.6788 15.4446 20.1631 15.4446C19.6474 15.4446 19.1528 15.2397 18.7881 14.8751C18.4235 14.5104 18.2186 14.0159 18.2186 13.5002C18.2186 12.9845 18.4235 12.4899 18.7881 12.1252C19.1528 11.7606 19.6474 11.5557 20.1631 11.5557C20.6788 11.5557 21.1733 11.7606 21.538 12.1252C21.9027 12.4899 22.1075 12.9845 22.1075 13.5002Z" stroke="#0072FF" stroke-linecap="round" stroke-linejoin="round"/>
</svg>
