<svg width="233" height="63" viewBox="0 0 233 63" fill="none" xmlns="http://www.w3.org/2000/svg">
<g clip-path="url(#clip0_10061_18800)">
<path d="M35.0362 4.593C36.2996 3.86222 37.9098 4.29573 38.6406 5.55911C39.3714 6.8225 38.9379 8.43269 37.6745 9.16347C36.4111 9.89425 34.8009 9.46074 34.0701 8.19736C33.3393 6.93397 33.7728 5.32378 35.0362 4.593ZM19.4917 4.2338C18.0301 4.2338 16.8534 5.41048 16.8534 6.87204C16.8534 8.3336 18.0301 9.51028 19.4917 9.51028C20.9532 9.51028 22.1299 8.3336 22.1299 6.87204C22.1299 5.41048 20.9532 4.2338 19.4917 4.2338ZM34.4169 17.7223C35.0362 18.7999 36.4111 19.1591 37.4887 18.5398C38.5663 17.9205 38.9255 16.5456 38.3062 15.468C37.6869 14.3904 36.312 14.0312 35.2344 14.6505C34.1692 15.2822 33.7976 16.6447 34.4169 17.7223ZM29.4377 22.3423C29.9208 21.5124 29.6359 20.4348 28.7936 19.9518C27.9638 19.4687 26.8862 19.7536 26.4031 20.5959C25.9201 21.4257 26.2049 22.5033 27.0472 22.9864C27.8894 23.4694 28.9547 23.1846 29.4377 22.3423ZM29.6607 3.01996C30.218 2.05384 29.8836 0.82762 28.9299 0.270245C27.9761 -0.28713 26.7375 0.0472959 26.1802 1.00103C25.6228 1.95476 25.9572 3.19337 26.9109 3.75074C27.8647 4.30812 29.1157 3.97369 29.6607 3.01996ZM19.4917 14.3533C18.253 14.3533 17.2498 15.3565 17.2498 16.5951C17.2498 17.8338 18.253 18.837 19.4917 18.837C20.7303 18.837 21.7335 17.8338 21.7335 16.5951C21.7335 15.3565 20.7303 14.3533 19.4917 14.3533ZM27.9266 15.6166C30.0694 15.6166 31.8035 13.8826 31.8035 11.7398C31.8035 9.59699 30.0694 7.86293 27.9266 7.86293C25.7838 7.86293 24.0498 9.59699 24.0498 11.7398C24.0498 13.8826 25.7838 15.6166 27.9266 15.6166ZM11.0691 14.378C12.5307 14.378 13.7073 13.2013 13.7073 11.7398C13.7073 10.2782 12.5307 9.10154 11.0691 9.10154C9.60754 9.10154 8.43086 10.2782 8.43086 11.7398C8.43086 13.2013 9.61993 14.378 11.0691 14.378ZM0.355117 25.0301C-0.375664 26.2935 0.0578507 27.9037 1.32123 28.6344C2.58462 29.3652 4.19481 28.9317 4.92559 27.6683C5.65637 26.4049 5.22286 24.7947 3.95948 24.064C2.69609 23.3332 1.0859 23.7667 0.355117 25.0301ZM21.0028 25.4636C20.5197 24.6337 19.4545 24.3365 18.6122 24.8195C17.7824 25.3026 17.4851 26.3678 17.9682 27.21C18.4512 28.0399 19.5164 28.3372 20.3587 27.8541C21.2009 27.3711 21.4858 26.3059 21.0028 25.4636ZM4.3806 15.6043C3.82323 14.6381 2.597 14.3161 1.63089 14.8735C0.66477 15.4308 0.342732 16.6571 0.900107 17.6232C1.45748 18.5893 2.68371 18.9113 3.64982 18.354C4.60355 17.7966 4.93798 16.5704 4.3806 15.6043ZM9.1121 30.0836C8.49279 31.1612 8.86438 32.5237 9.92958 33.1554C11.0072 33.7747 12.3696 33.4031 13.0013 32.3379C13.6206 31.2603 13.2491 29.8978 12.1839 29.2661C11.1063 28.6468 9.73141 29.0184 9.1121 30.0836ZM14.4257 23.4075C15.5033 21.5496 14.8593 19.1715 13.0013 18.1062C11.1434 17.0287 8.76529 17.6727 7.70008 19.5306C6.62249 21.3886 7.26657 23.7667 9.12449 24.8319C10.9824 25.8971 13.3481 25.2654 14.4257 23.4075ZM4.92559 37.3914C5.65637 36.128 5.22286 34.5178 3.95948 33.7871C2.69609 33.0563 1.0859 33.4898 0.355117 34.7532C-0.375664 36.0166 0.0578507 37.6268 1.32123 38.3575C2.58462 39.0883 4.19481 38.6548 4.92559 37.3914ZM8.79006 52.007C9.52084 53.2704 11.131 53.7039 12.3944 52.9731C13.6578 52.2424 14.0913 50.6322 13.3605 49.3688C12.6298 48.1054 11.0196 47.6719 9.75618 48.4027C8.49279 49.1211 8.05928 50.7437 8.79006 52.007ZM19.4917 34.3321C18.5255 34.3321 17.7452 35.1124 17.7452 36.0785C17.7452 37.0446 18.5255 37.8249 19.4917 37.8249C20.4578 37.8249 21.2381 37.0446 21.2381 36.0785C21.2381 35.1124 20.4578 34.3321 19.4917 34.3321ZM2.63416 43.8074C1.51941 43.8074 0.627613 44.7116 0.627613 45.814C0.627613 46.9287 1.5318 47.8205 2.63416 47.8205C3.74891 47.8205 4.64071 46.9163 4.64071 45.814C4.6531 44.6992 3.74891 43.8074 2.63416 43.8074ZM17.547 46.9287C18.1663 48.0063 19.5412 48.3655 20.6188 47.7462C21.6964 47.1269 22.0556 45.752 21.4363 44.6745C20.817 43.5969 19.4421 43.2377 18.3645 43.857C17.2993 44.4887 16.9277 45.8635 17.547 46.9287ZM14.4257 39.014C13.3481 37.1561 10.9824 36.5244 9.12449 37.5896C7.26657 38.6548 6.63488 41.0329 7.70008 42.8909C8.77767 44.7488 11.1434 45.3805 13.0013 44.3153C14.8593 43.2377 15.4909 40.8719 14.4257 39.014ZM21.7831 54.2241C21.0523 52.9608 19.4421 52.5272 18.1787 53.258C16.9153 53.9888 16.4818 55.599 17.2126 56.8624C17.9434 58.1258 19.5536 58.5593 20.817 57.8285C22.0804 57.0977 22.5015 55.4875 21.7831 54.2241ZM36.3615 58.1877C37.8231 58.1877 38.9998 57.011 38.9998 55.5495C38.9998 54.0879 37.8231 52.9112 36.3615 52.9112C34.9 52.9112 33.7233 54.0879 33.7233 55.5495C33.7233 57.011 34.9 58.1877 36.3615 58.1877ZM26.4155 40.0792C25.9324 40.9091 26.2173 41.9867 27.0596 42.4697C27.8894 42.9528 28.967 42.6679 29.4501 41.8256C29.9332 40.9958 29.6483 39.9182 28.806 39.4351C27.9638 38.9521 26.8986 39.237 26.4155 40.0792ZM26.1925 59.4015C25.6352 60.3677 25.9696 61.5939 26.9233 62.1513C27.8894 62.7086 29.1157 62.3742 29.673 61.4205C30.2304 60.4667 29.896 59.2281 28.9423 58.6708C27.9885 58.1134 26.7375 58.4478 26.1925 59.4015ZM36.3615 48.0559C37.6002 48.0559 38.6034 47.0526 38.6034 45.814C38.6034 44.5754 37.6002 43.5721 36.3615 43.5721C35.1229 43.5721 34.1197 44.5754 34.1197 45.814C34.1197 47.0526 35.1229 48.0559 36.3615 48.0559ZM27.9266 46.8049C25.7838 46.8049 24.0498 48.5389 24.0498 50.6817C24.0498 52.8245 25.7838 54.5586 27.9266 54.5586C30.0694 54.5586 31.8035 52.8245 31.8035 50.6817C31.8035 48.5389 30.0694 46.8049 27.9266 46.8049ZM44.7841 48.0435C43.3225 48.0435 42.1459 49.2202 42.1459 50.6817C42.1459 52.1433 43.3225 53.32 44.7841 53.32C46.2457 53.32 47.4223 52.1433 47.4223 50.6817C47.4223 49.2202 46.2333 48.0435 44.7841 48.0435ZM55.4981 37.3914C56.2289 36.128 55.7954 34.5178 54.532 33.7871C53.2686 33.0563 51.6584 33.4898 50.9276 34.7532C50.1968 36.0166 50.6303 37.6268 51.8937 38.3575C53.1571 39.0883 54.7673 38.6548 55.4981 37.3914ZM34.8504 36.9579C35.3335 37.7878 36.3987 38.085 37.241 37.602C38.0708 37.1189 38.3681 36.0537 37.885 35.2115C37.402 34.3816 36.3368 34.0843 35.4945 34.5674C34.6523 35.0504 34.3674 36.1157 34.8504 36.9579ZM51.4726 46.8172C52.03 47.7834 53.2562 48.1054 54.2223 47.548C55.1884 46.9907 55.5105 45.7644 54.9531 44.7983C54.3957 43.8322 53.1695 43.5102 52.2034 44.0675C51.2497 44.6249 50.9152 45.8511 51.4726 46.8172ZM46.7411 32.3379C47.3604 31.2603 46.9888 29.8978 45.9236 29.2661C44.846 28.6468 43.4836 29.0184 42.8519 30.0836C42.2326 31.1612 42.6041 32.5237 43.6694 33.1554C44.7469 33.7747 46.1218 33.4031 46.7411 32.3379ZM41.4275 39.014C40.3499 40.8719 40.994 43.25 42.8519 44.3153C44.7098 45.3928 47.0879 44.7488 48.1531 42.8909C49.2307 41.0329 48.5866 38.6548 46.7287 37.5896C44.8832 36.512 42.5051 37.1561 41.4275 39.014ZM50.9276 25.0301C50.1968 26.2935 50.6303 27.9037 51.8937 28.6344C53.1571 29.3652 54.7673 28.9317 55.4981 27.6683C56.2289 26.4049 55.7954 24.7947 54.532 24.064C53.2686 23.3332 51.6584 23.7667 50.9276 25.0301ZM47.0631 10.4145C46.3324 9.15109 44.7222 8.71757 43.4588 9.44835C42.1954 10.1791 41.7619 11.7893 42.4927 13.0527C43.2235 14.3161 44.8336 14.7496 46.097 14.0188C47.3604 13.3004 47.7939 11.6779 47.0631 10.4145ZM36.3615 28.0894C37.3277 28.0894 38.108 27.3091 38.108 26.343C38.108 25.3769 37.3277 24.5966 36.3615 24.5966C35.3954 24.5966 34.6151 25.3769 34.6151 26.343C34.6151 27.3091 35.3954 28.0894 36.3615 28.0894ZM53.219 18.6141C54.3338 18.6141 55.2256 17.7099 55.2256 16.6075C55.2256 15.4928 54.3214 14.601 53.219 14.601C52.1167 14.601 51.2125 15.5052 51.2125 16.6075C51.2001 17.7223 52.1043 18.6141 53.219 18.6141ZM41.4275 23.4075C42.5051 25.2654 44.8708 25.8971 46.7287 24.8319C48.5866 23.7543 49.2183 21.3886 48.1531 19.5306C47.0755 17.6727 44.7098 17.041 42.8519 18.1062C40.994 19.1838 40.3623 21.5496 41.4275 23.4075Z" fill="white"/>
</g>
<g clip-path="url(#clip1_10061_18800)">
<path d="M67.9467 39.9396H63.9492L71.4672 23.0604H75.3307L82.8755 39.9396H78.7762L72.6032 25.0376H74.1465L67.9467 39.9396ZM78.4868 36.3227H67.7055L68.7451 33.354H77.4259L78.4868 36.3227ZM92.135 40.229C89.7379 40.229 87.8642 39.561 86.5139 38.2249C85.1671 36.8924 84.4937 34.9884 84.4937 32.5128V23.0604H88.3947V32.3681C88.3947 33.9756 88.7252 35.1331 89.386 35.8404C90.0434 36.5477 90.9668 36.9014 92.1564 36.9014C93.3496 36.9014 94.2748 36.5477 94.9321 35.8404C95.593 35.1331 95.9234 33.9756 95.9234 32.3681V23.0604H99.7815V32.5128C99.7815 34.9884 99.1064 36.8924 97.756 38.2249C96.4057 39.561 94.532 40.229 92.135 40.229ZM111.04 39.9396H107.133V26.2433H101.732V23.0604H116.441V26.2433H111.04V39.9396ZM126.74 40.229C125.404 40.229 124.17 40.0111 123.037 39.5753C121.905 39.143 120.924 38.5321 120.096 37.7427C119.267 36.9567 118.624 36.0333 118.167 34.9723C117.709 33.9113 117.481 32.7539 117.481 31.5C117.481 30.2461 117.709 29.0887 118.167 28.0277C118.624 26.9667 119.27 26.0415 120.106 25.252C120.942 24.4661 121.923 23.8552 123.048 23.4194C124.173 22.9871 125.395 22.771 126.713 22.771C128.049 22.771 129.275 22.9871 130.389 23.4194C131.507 23.8552 132.481 24.4661 133.31 25.252C134.138 26.0415 134.785 26.9631 135.249 28.017C135.717 29.0672 135.951 30.2282 135.951 31.5C135.951 32.7539 135.717 33.9149 135.249 34.983C134.785 36.0512 134.138 36.9764 133.31 37.7587C132.481 38.5375 131.507 39.143 130.389 39.5753C129.275 40.0111 128.058 40.229 126.74 40.229ZM126.713 36.9014C127.471 36.9014 128.166 36.7728 128.798 36.5156C129.434 36.2584 129.993 35.8886 130.475 35.4064C130.957 34.9241 131.331 34.3525 131.595 33.6916C131.863 33.0343 131.997 32.3038 131.997 31.5C131.997 30.6962 131.863 29.9639 131.595 29.303C131.331 28.6457 130.961 28.0759 130.486 27.5937C130.014 27.1114 129.457 26.7416 128.814 26.4844C128.171 26.2272 127.471 26.0986 126.713 26.0986C125.96 26.0986 125.265 26.2272 124.629 26.4844C123.993 26.7416 123.434 27.1114 122.952 27.5937C122.469 28.0759 122.096 28.6457 121.832 29.303C121.567 29.9639 121.435 30.6962 121.435 31.5C121.435 32.2859 121.567 33.0129 121.832 33.6809C122.096 34.3489 122.466 34.9241 122.941 35.4064C123.416 35.8886 123.975 36.2584 124.618 36.5156C125.261 36.7728 125.96 36.9014 126.713 36.9014ZM142.505 33.7881V30.6534H150.607V33.7881H142.505ZM142.8 26.1951V39.9396H138.893V23.0604H151.647V26.1951H142.8ZM161.796 40.229C159.402 40.229 157.53 39.561 156.18 38.2249C154.829 36.8924 154.154 34.9884 154.154 32.5128V23.0604H158.061V32.3681C158.061 33.9756 158.389 35.1331 159.047 35.8404C159.708 36.5477 160.633 36.9014 161.822 36.9014C163.012 36.9014 163.935 36.5477 164.593 35.8404C165.254 35.1331 165.584 33.9756 165.584 32.3681V23.0604H169.442V32.5128C169.442 34.9884 168.767 36.8924 167.417 38.2249C166.066 39.561 164.193 40.229 161.796 40.229ZM178.846 40.229C177.496 40.229 176.203 40.0486 174.967 39.6878C173.727 39.3234 172.729 38.8519 171.971 38.2732L173.3 35.3313C174.022 35.8457 174.877 36.2691 175.867 36.6013C176.857 36.93 177.857 37.0943 178.868 37.0943C179.639 37.0943 180.263 37.0175 180.738 36.8639C181.213 36.7103 181.563 36.4977 181.788 36.2262C182.013 35.9511 182.126 35.6368 182.126 35.2831C182.126 34.833 181.949 34.4758 181.595 34.2114C181.242 33.9471 180.775 33.7309 180.197 33.563C179.618 33.3916 178.978 33.2308 178.278 33.0808C177.578 32.9271 176.88 32.7378 176.183 32.5128C175.483 32.2877 174.843 31.9983 174.265 31.6447C173.686 31.291 173.216 30.8248 172.855 30.2461C172.491 29.6674 172.309 28.9279 172.309 28.0277C172.309 27.0632 172.571 26.1826 173.097 25.3859C173.618 24.5893 174.406 23.9552 175.46 23.4837C176.514 23.0086 177.835 22.771 179.425 22.771C180.486 22.771 181.531 22.896 182.56 23.1461C183.589 23.3926 184.496 23.7659 185.282 24.266L184.076 27.2293C183.29 26.7792 182.504 26.4469 181.718 26.2326C180.929 26.0147 180.157 25.9057 179.404 25.9057C178.646 25.9057 178.026 25.9932 177.544 26.1683C177.062 26.3469 176.717 26.5773 176.51 26.8595C176.299 27.1382 176.194 27.4633 176.194 27.8348C176.194 28.267 176.371 28.6171 176.724 28.8851C177.078 29.1494 177.544 29.362 178.123 29.5227C178.702 29.6835 179.341 29.8442 180.041 30.005C180.741 30.1657 181.44 30.3497 182.136 30.5569C182.837 30.7677 183.476 31.0499 184.055 31.4035C184.633 31.7572 185.103 32.2234 185.464 32.8021C185.825 33.3808 186.005 34.1114 186.005 34.9937C186.005 35.944 185.741 36.8121 185.212 37.598C184.68 38.3875 183.889 39.0233 182.838 39.5056C181.785 39.9879 180.454 40.229 178.846 40.229ZM192.591 39.9396H188.685V23.0604H192.591V39.9396ZM204.792 40.229C203.456 40.229 202.222 40.0111 201.089 39.5753C199.957 39.143 198.976 38.5321 198.148 37.7427C197.319 36.9567 196.676 36.0333 196.219 34.9723C195.761 33.9113 195.533 32.7539 195.533 31.5C195.533 30.2461 195.761 29.0887 196.219 28.0277C196.676 26.9667 197.322 26.0415 198.158 25.252C198.998 24.4661 199.98 23.8552 201.106 23.4194C202.227 22.9871 203.447 22.771 204.765 22.771C206.101 22.771 207.329 22.9871 208.447 23.4194C209.561 23.8552 210.533 24.4661 211.362 25.252C212.191 26.0415 212.837 26.9631 213.301 28.017C213.769 29.0672 214.003 30.2282 214.003 31.5C214.003 32.7539 213.769 33.9149 213.301 34.983C212.837 36.0512 212.191 36.9764 211.362 37.7587C210.533 38.5375 209.561 39.143 208.447 39.5753C207.329 40.0111 206.11 40.229 204.792 40.229ZM204.765 36.9014C205.523 36.9014 206.219 36.7728 206.855 36.5156C207.488 36.2584 208.047 35.8886 208.532 35.4064C209.011 34.9241 209.384 34.3525 209.652 33.6916C209.917 33.0343 210.049 32.3038 210.049 31.5C210.049 30.6962 209.917 29.9639 209.652 29.303C209.384 28.6457 209.015 28.0759 208.543 27.5937C208.068 27.1114 207.509 26.7416 206.866 26.4844C206.223 26.2272 205.523 26.0986 204.765 26.0986C204.012 26.0986 203.317 26.2272 202.681 26.4844C202.049 26.7416 201.491 27.1114 201.009 27.5937C200.527 28.0759 200.152 28.6457 199.884 29.303C199.619 29.9639 199.487 30.6962 199.487 31.5C199.487 32.2859 199.619 33.0129 199.884 33.6809C200.152 34.3489 200.521 34.9241 200.993 35.4064C201.468 35.8886 202.027 36.2584 202.67 36.5156C203.313 36.7728 204.012 36.9014 204.765 36.9014ZM220.803 39.9396H216.945V23.0604H220.176L230.138 35.2134H228.568V23.0604H232.426V39.9396H229.216L219.233 27.7866H220.803V39.9396Z" fill="white"/>
</g>
<defs>
<clipPath id="clip0_10061_18800">
<rect width="55.8532" height="62.4215" fill="white"/>
</clipPath>
<clipPath id="clip1_10061_18800">
<rect width="168.477" height="17.458" fill="white" transform="translate(63.9492 22.771)"/>
</clipPath>
</defs>
</svg>
