<svg width="32" height="32" viewBox="0 0 32 32" fill="none" xmlns="http://www.w3.org/2000/svg">
<circle cx="16" cy="16" r="16" fill="#0072FF" fill-opacity="0.1"/>
<path d="M23.0821 15.2297L22.445 14.4964H22.7191C23.1932 14.4964 23.5784 14.1112 23.5784 13.6371V13.3556C23.5784 12.8816 23.1932 12.4964 22.7191 12.4964H22.4747C22.2672 12.4964 22.1043 12.6593 22.1043 12.8668C22.1043 13.0742 22.2672 13.2371 22.4747 13.2371H22.7191C22.7858 13.2371 22.8376 13.289 22.8376 13.3556V13.6371C22.8376 13.7038 22.7858 13.7556 22.7191 13.7556H22.2006L21.645 11.9408C21.2821 10.7705 20.2228 9.99268 19.0006 9.99268H13.0006C11.7784 9.99268 10.7191 10.7779 10.3561 11.9408L9.80058 13.7556H9.28206C9.21539 13.7556 9.16354 13.7038 9.16354 13.6371V13.3556C9.16354 13.289 9.21539 13.2371 9.28206 13.2371H9.5265C9.73391 13.2371 9.89687 13.0742 9.89687 12.8668C9.89687 12.6593 9.73391 12.4964 9.5265 12.4964H9.28206C8.80799 12.4964 8.4228 12.8816 8.4228 13.3556V13.6371C8.4228 14.1112 8.80799 14.4964 9.28206 14.4964H9.55613L8.9191 15.2297C8.5191 15.689 8.29688 16.2816 8.29688 16.8964V19.0223C8.29688 19.4742 8.54873 19.8667 8.9265 20.0742V20.9112C8.9265 21.526 9.4228 22.0223 10.0376 22.0223H11.3117C11.9265 22.0223 12.4228 21.526 12.4228 20.9112V20.2297H19.5784V20.9112C19.5784 21.526 20.0747 22.0223 20.6895 22.0223H21.9635C22.5784 22.0223 23.0747 21.526 23.0747 20.9112V20.0742C23.445 19.8667 23.7043 19.4816 23.7043 19.0223V16.8964C23.7043 16.2816 23.4821 15.689 23.0821 15.2297ZM9.48206 15.7186L10.1932 14.9038C10.2302 14.8668 10.2524 14.8223 10.2672 14.7705L10.4154 14.289C10.4154 14.289 10.4302 14.2445 10.4376 14.2223L11.0747 12.163C11.3413 11.3112 12.1191 10.7334 13.008 10.7334H19.0006C19.8969 10.7334 20.6747 11.3038 20.9339 12.163L21.5709 14.2223C21.5709 14.2223 21.5784 14.2667 21.5932 14.289L21.7413 14.7705C21.7561 14.8223 21.7784 14.8668 21.8154 14.9038L22.5265 15.7186C22.808 16.0445 22.9709 16.4668 22.9709 16.9038V17.9779H21.2821C21.0376 17.9779 20.8302 17.7779 20.8302 17.526V17.0519C20.8302 16.8075 21.0302 16.6001 21.2821 16.6001H22.1858C22.3932 16.6001 22.5561 16.4371 22.5561 16.2297C22.5561 16.0223 22.3932 15.8593 22.1858 15.8593H21.2821C20.6228 15.8593 20.0895 16.3927 20.0895 17.0519V17.526C20.0895 18.1853 20.6228 18.7186 21.2821 18.7186H22.9709V19.0297C22.9709 19.2816 22.7635 19.489 22.5117 19.489H18.7043V18.2223C18.7043 18.0149 18.5413 17.8519 18.3339 17.8519H13.6821C13.4747 17.8519 13.3117 18.0149 13.3117 18.2223V19.489H9.50428C9.25243 19.489 9.04502 19.2816 9.04502 19.0297V18.7186H10.7339C11.3932 18.7186 11.9265 18.1853 11.9265 17.526V17.0519C11.9265 16.3927 11.3932 15.8593 10.7339 15.8593H9.83021C9.6228 15.8593 9.45984 16.0223 9.45984 16.2297C9.45984 16.4371 9.6228 16.6001 9.83021 16.6001H10.7339C10.9784 16.6001 11.1858 16.8001 11.1858 17.0519V17.526C11.1858 17.7705 10.9858 17.9779 10.7339 17.9779H9.04502V16.9038C9.04502 16.4668 9.20058 16.0519 9.48947 15.7186H9.48206ZM11.6821 20.9038C11.6821 21.1112 11.5191 21.2742 11.3117 21.2742H10.0376C9.83021 21.2742 9.66725 21.1112 9.66725 20.9038V20.2223H11.6821V20.9038ZM14.045 19.4816V18.5853H17.9561V19.4816H14.045ZM22.3339 20.9038C22.3339 21.1112 22.1709 21.2742 21.9635 21.2742H20.6895C20.4821 21.2742 20.3191 21.1112 20.3191 20.9038V20.2223H22.3339V20.9038Z" fill="#0072FF"/>
<path d="M11.5462 14.4893H20.4499C20.6573 14.4893 20.8202 14.3263 20.8202 14.1189C20.8202 13.9115 20.6573 13.7485 20.4499 13.7485H11.5462C11.3387 13.7485 11.1758 13.9115 11.1758 14.1189C11.1758 14.3263 11.3387 14.4893 11.5462 14.4893Z" fill="#0072FF"/>
<path d="M19.0273 15.8521H12.968C12.7606 15.8521 12.5977 16.015 12.5977 16.2224C12.5977 16.4298 12.7606 16.5928 12.968 16.5928H19.0273C19.2347 16.5928 19.3977 16.4298 19.3977 16.2224C19.3977 16.015 19.2347 15.8521 19.0273 15.8521Z" fill="#0072FF"/>
</svg>
