<svg width="14" height="11" viewBox="0 0 14 11" fill="none" xmlns="http://www.w3.org/2000/svg">
<path d="M11.8239 0.30957H9.27424C8.82853 0.310314 8.38811 0.398357 7.98229 0.567836C7.57647 0.737315 7.21457 0.984343 6.92068 1.29247C6.62679 0.984343 6.26489 0.737315 5.85908 0.567836C5.45326 0.398357 5.01283 0.310314 4.56713 0.30957H2.01744C1.65332 0.30957 1.30412 0.442578 1.04665 0.679332C0.789177 0.916086 0.644531 1.23719 0.644531 1.57201V8.06458C0.644531 8.39941 0.789177 8.72051 1.04665 8.95727C1.30412 9.19402 1.65332 9.32703 2.01744 9.32703H4.56713C4.98326 9.32703 5.38235 9.47904 5.6766 9.74961C5.97085 10.0202 6.13616 10.3872 6.13616 10.7698H7.7052C7.7052 10.3872 7.87051 10.0202 8.16476 9.74961C8.45901 9.47904 8.8581 9.32703 9.27424 9.32703H11.8239C12.188 9.32703 12.5372 9.19402 12.7947 8.95727C13.0522 8.72051 13.1968 8.39941 13.1968 8.06458V1.57201C13.1968 1.23719 13.0522 0.916086 12.7947 0.679332C12.5372 0.442578 12.188 0.30957 11.8239 0.30957ZM4.56713 7.88423H2.21357V1.75236H4.56713C4.98326 1.75236 5.38235 1.90437 5.6766 2.17495C5.97085 2.44552 6.13616 2.8125 6.13616 3.19516V8.27199C5.6596 8.01752 5.11821 7.88373 4.56713 7.88423ZM11.6278 7.88423H9.27424C8.72315 7.88373 8.18177 8.01752 7.7052 8.27199V3.19516C7.7052 2.8125 7.87051 2.44552 8.16476 2.17495C8.45901 1.90437 8.8581 1.75236 9.27424 1.75236H11.6278V7.88423Z" fill="#9AA2B6"/>
</svg>
