<svg width="12" height="11" viewBox="0 0 12 11" fill="none" xmlns="http://www.w3.org/2000/svg">
<path d="M0 1.70015V9.30309C0.00225401 9.75403 0.161284 10.1856 0.442345 10.5036C0.723405 10.8215 1.10365 11 1.5 11C1.89782 11 2.27936 10.8202 2.56066 10.5002C2.84196 10.1801 3 9.746 3 9.29338V1.69043C2.99625 1.24062 2.83656 0.810684 2.55566 0.494121C2.27477 0.177558 1.89537 -2.02065e-05 1.5 1.72455e-09C1.10316 -3.24353e-06 0.722487 0.178922 0.441346 0.497577C0.160204 0.816231 0.00150466 1.24865 0 1.70015Z" fill="#9AA2B6"/>
<path d="M8.3661 3.29164C8.36622 3.24037 8.37744 3.19002 8.39862 3.14568C8.4198 3.10134 8.4502 3.06454 8.48677 3.03898C8.52335 3.01341 8.56481 2.99996 8.60701 3C8.6492 3.00004 8.69065 3.01355 8.7272 3.03919L10.3034 4.14293L11.8796 5.2467C11.9162 5.27237 11.9466 5.30928 11.9677 5.35375C11.9889 5.39821 12 5.44866 12 5.5C12 5.55135 11.9889 5.60179 11.9677 5.64625C11.9466 5.69072 11.9162 5.72763 11.8796 5.7533L10.3034 6.85707L8.7272 7.96081C8.69065 7.98645 8.6492 7.99996 8.60701 8C8.56481 8.00004 8.52335 7.98659 8.48677 7.96102C8.4502 7.93546 8.4198 7.89866 8.39862 7.85432C8.37744 7.80998 8.36622 7.75965 8.3661 7.70838V6.50191H4.83396C4.61278 6.50191 4.40066 6.39517 4.24426 6.20515C4.08786 6.01513 4 5.75742 4 5.48869C4 5.21997 4.08786 4.96225 4.24426 4.77224C4.40066 4.58222 4.61278 4.47546 4.83396 4.47546H8.3661V3.28118V3.29164Z" fill="#9AA2B6"/>
</svg>
