<svg width="12" height="14" viewBox="0 0 12 14" fill="none" xmlns="http://www.w3.org/2000/svg">
<path fill-rule="evenodd" clip-rule="evenodd" d="M11.4125 12.5562H5.89149C5.6032 13.3973 4.83649 14 3.93323 14C3.02996 14 2.26344 13.3973 1.97516 12.5562H0.587516C0.263124 12.5562 0.000191956 12.2812 0.000191956 11.9418V11.7007C0.000191956 11.3614 0.263124 11.0863 0.587516 11.0863H1.97574C2.2644 10.2461 3.03073 9.64415 3.93323 9.64415C4.83592 9.64415 5.60205 10.2461 5.89091 11.0863H11.4125C11.7369 11.0863 11.9998 11.3614 11.9998 11.7007V11.9418C12 12.281 11.7369 12.5562 11.4125 12.5562ZM3.93323 11.099C3.5516 11.099 3.24238 11.4227 3.24238 11.8219C3.24238 12.2211 3.55179 12.5448 3.93323 12.5448C4.31485 12.5448 4.62426 12.2211 4.62426 11.8219C4.62426 11.4227 4.31504 11.099 3.93323 11.099ZM11.4125 7.73405H10.04C9.75173 8.57508 8.98502 9.17782 8.08175 9.17782C7.17849 9.17782 6.41178 8.57508 6.1235 7.73405H0.587516C0.263124 7.73405 0.000191956 7.45899 0.000191956 7.11965V6.87855C0.000191956 6.5392 0.263124 6.26415 0.587516 6.26415H6.12426C6.41312 5.42392 7.17926 4.82197 8.08195 4.82197C8.98444 4.82197 9.75077 5.42392 10.0394 6.26415H11.4127C11.7371 6.26415 12 6.5392 12 6.87855V7.11965C12 7.45899 11.7369 7.73405 11.4125 7.73405ZM8.08195 6.27701C7.70032 6.27701 7.39091 6.60068 7.39091 6.9999C7.39091 7.39912 7.70032 7.72279 8.08195 7.72279C8.46357 7.72279 8.77279 7.39912 8.77279 6.9999C8.77279 6.60068 8.46338 6.27701 8.08195 6.27701ZM11.4125 2.91207H5.89149C5.6032 3.7531 4.83649 4.35585 3.93323 4.35585C3.02996 4.35585 2.26344 3.7531 1.97497 2.91207H0.587324C0.262932 2.91207 0 2.63702 0 2.29767V2.05657C0 1.71723 0.262932 1.44217 0.587324 1.44217H1.97554C2.2644 0.601943 3.03054 0 3.93303 0C4.83553 0 5.60186 0.601943 5.89072 1.44217H11.4123C11.7367 1.44217 11.9996 1.71723 11.9996 2.05657V2.29767C12 2.63702 11.7369 2.91207 11.4125 2.91207ZM3.93323 1.45503C3.5516 1.45503 3.24238 1.77871 3.24238 2.17793C3.24238 2.57714 3.55179 2.90082 3.93323 2.90082C4.31485 2.90082 4.62426 2.57714 4.62426 2.17793C4.62426 1.77871 4.31504 1.45503 3.93323 1.45503Z" fill="white"/>
</svg>
