<svg width="17" height="15" viewBox="0 0 17 15" fill="none" xmlns="http://www.w3.org/2000/svg">
<path d="M0.718661 2.30676V12.6224C0.72172 13.2343 0.937492 13.8199 1.31884 14.2513C1.70018 14.6827 2.21609 14.9248 2.75386 14.9248C3.29363 14.9248 3.81129 14.6809 4.19297 14.2466C4.57464 13.8124 4.78906 13.2234 4.78906 12.6093V2.29358C4.78398 1.68327 4.56731 1.09994 4.18619 0.670423C3.80506 0.240911 3.2903 -2.74161e-05 2.75386 2.33987e-09C2.21543 -4.40082e-06 1.69893 0.242761 1.31748 0.675112C0.936027 1.10746 0.720703 1.69417 0.718661 2.30676Z" fill="#4D555C"/>
<path d="M12.0695 4.466C12.0697 4.39644 12.0849 4.32814 12.1136 4.26797C12.1424 4.20781 12.1836 4.15789 12.2332 4.12319C12.2829 4.0885 12.3391 4.07026 12.3964 4.07031C12.4536 4.07036 12.5099 4.0887 12.5595 4.12348L14.6981 5.62105L16.8367 7.11864C16.8863 7.15347 16.9276 7.20355 16.9562 7.26388C16.9849 7.32421 17 7.39265 17 7.46231C17 7.53198 16.9849 7.60042 16.9562 7.66075C16.9276 7.72108 16.8863 7.77116 16.8367 7.80599L14.6981 9.30358L12.5595 10.8011C12.5099 10.8359 12.4536 10.8543 12.3964 10.8543C12.3391 10.8544 12.2829 10.8361 12.2332 10.8014C12.1836 10.7667 12.1424 10.7168 12.1136 10.6567C12.0849 10.5965 12.0697 10.5282 12.0695 10.4587V8.8217H7.27711C6.97701 8.8217 6.68921 8.67688 6.47701 8.41906C6.26481 8.16125 6.1456 7.81158 6.1456 7.44697C6.1456 7.08237 6.26481 6.7327 6.47701 6.47489C6.68921 6.21707 6.97701 6.07222 7.27711 6.07222H12.0695V4.45182V4.466Z" fill="#4D555C"/>
</svg>
