<svg width="15" height="14" viewBox="0 0 15 14" fill="none" xmlns="http://www.w3.org/2000/svg">
<path d="M1.69043 11.5367C1.69043 10.7738 1.9935 10.0421 2.53296 9.50268C3.07242 8.96322 3.80409 8.66016 4.567 8.66016H10.3201C11.0831 8.66016 11.8147 8.96322 12.3542 9.50268C12.8936 10.0421 13.1967 10.7738 13.1967 11.5367C13.1967 11.9182 13.0452 12.284 12.7754 12.5537C12.5057 12.8235 12.1399 12.975 11.7584 12.975H3.12871C2.74726 12.975 2.38142 12.8235 2.11169 12.5537C1.84196 12.284 1.69043 11.9182 1.69043 11.5367Z" stroke="#9AA2B6" stroke-width="1.79786" stroke-linejoin="round"/>
<path d="M7.44356 5.7836C8.63507 5.7836 9.60099 4.81769 9.60099 3.62618C9.60099 2.43466 8.63507 1.46875 7.44356 1.46875C6.25205 1.46875 5.28613 2.43466 5.28613 3.62618C5.28613 4.81769 6.25205 5.7836 7.44356 5.7836Z" stroke="#9AA2B6" stroke-width="1.79786"/>
</svg>
