<svg width="17" height="17" viewBox="0 0 17 17" fill="none" xmlns="http://www.w3.org/2000/svg">
<path d="M6.48155 0.489502H1.90525C1.18624 0.489502 0.597656 1.07809 0.597656 1.7971V6.37339C0.597656 7.09241 1.18624 7.68099 1.90525 7.68099H6.48155C7.20036 7.68099 7.78915 7.09241 7.78915 6.37339V1.7971C7.78915 1.07809 7.20036 0.489502 6.48155 0.489502ZM2.23201 2.12385H4.1933V3.43145H2.23201V2.12385ZM6.1546 6.04645H2.23201V4.73885H6.1546V6.04645Z" fill="white"/>
<path d="M14.9806 0.489502H10.4043C9.68546 0.489502 9.09668 1.07809 9.09668 1.7971V6.37339C9.09668 7.09241 9.68546 7.68099 10.4043 7.68099H14.9806C15.6996 7.68099 16.2882 7.09241 16.2882 6.37339V1.7971C16.2882 1.07809 15.6996 0.489502 14.9806 0.489502ZM12.6925 6.04645H10.7312V4.73885H12.6925V6.04645ZM14.6538 3.43145H10.7312V2.12385H14.6538V3.43145Z" fill="white"/>
<path d="M6.48155 8.9884H1.90525C1.18624 8.9884 0.597656 9.57679 0.597656 10.2958V14.8723C0.597656 15.5911 1.18624 16.1797 1.90525 16.1797H6.48155C7.20036 16.1797 7.78915 15.5911 7.78915 14.8723V10.2958C7.78915 9.57679 7.20036 8.9884 6.48155 8.9884ZM4.1933 14.5452H2.23201V13.2378H4.1933V14.5452ZM6.1546 11.9303H2.23201V10.6226H6.1546V11.9303Z" fill="white"/>
<path d="M14.9806 8.9884H10.4043C9.68546 8.9884 9.09668 9.57679 9.09668 10.2958V14.8723C9.09668 15.5911 9.68546 16.1797 10.4043 16.1797H14.9806C15.6996 16.1797 16.2882 15.5911 16.2882 14.8723V10.2958C16.2882 9.57679 15.6996 8.9884 14.9806 8.9884ZM10.7312 10.6226H12.6925V11.9303H10.7312V10.6226ZM14.6538 14.5452H10.7312V13.2378H14.6538V14.5452Z" fill="white"/>
</svg>
