<svg width="16" height="16" viewBox="0 0 16 16" fill="none" xmlns="http://www.w3.org/2000/svg">
<path fill-rule="evenodd" clip-rule="evenodd" d="M2.39702 0H13.603C14.9213 0 16 1.07866 16 2.39702V13.603C16 14.9213 14.9213 16 13.603 16H2.39702C1.07866 16 0 14.9213 0 13.603V2.39702C0 1.07866 1.07866 0 2.39702 0ZM6.27232 9.36815L11.7854 3.85506C12.0451 3.59542 12.4445 3.59542 12.6843 3.85506L13.4034 4.55419C13.6631 4.81383 13.6631 5.2133 13.4034 5.45312L6.71176 12.1448C6.47207 12.4044 6.07259 12.4044 5.81283 12.1448L2.59676 8.90878C2.33712 8.66909 2.33712 8.26961 2.59676 8.00985L3.29589 7.31071C3.55553 7.05108 3.955 7.05108 4.19482 7.31071L6.27226 9.36809L6.27232 9.36815Z" fill="#0099D6"/>
</svg>
