<svg width="32" height="32" viewBox="0 0 32 32" fill="none" xmlns="http://www.w3.org/2000/svg">
<path opacity="0.4" d="M26.5 0C24.5749 0 23 1.59817 23 3.55162C23 4.86566 23.6999 6.00231 24.75 6.64147V14.2064H17.75V6.64147C18.8001 6.03773 19.5 4.86566 19.5 3.55162C19.5 1.59817 17.9251 0 16 0C14.0749 0 12.5 1.59817 12.5 3.55162C12.5 4.86566 13.1999 6.00231 14.25 6.64147V14.2064H7.25V6.64147C8.30006 6.03773 9 4.86566 9 3.55162C9 1.59817 7.42506 0 5.5 0C3.57494 0 2 1.59817 2 3.55162C2 4.86566 2.69994 6.00231 3.75 6.64147V25.3585C2.69994 25.9623 2 27.1343 2 28.4484C2 30.4018 3.57494 32 5.5 32C7.42506 32 9 30.4018 9 28.4484C9 27.1343 8.30006 25.9977 7.25 25.3585V17.7581H14.25V25.323C13.1999 25.9268 12.5 27.0988 12.5 28.4129C12.5 30.3663 14.0749 31.9645 16 31.9645C17.9251 31.9645 19.5 30.3663 19.5 28.4129C19.5 27.0988 18.8001 25.9622 17.75 25.323V17.7581H28.25V6.64147C29.3001 6.03773 30 4.86566 30 3.55162C30 1.59817 28.4251 0 26.5 0Z" fill="#23262E"/>
</svg>
