<svg width="32" height="32" viewBox="0 0 32 32" fill="none" xmlns="http://www.w3.org/2000/svg">
<path opacity="0.4" d="M16.6492 8.22849H15.352C12.3959 8.22849 10 10.3649 10 12.9997V20.3172C10 21.1862 10.6529 21.8902 11.4599 21.8902H12.4552L13.1118 29.9084C13.1118 31.0631 13.9424 32 14.9688 32H17.0325C18.0588 32 18.8895 31.0636 18.8895 29.9084L19.5449 21.8902H20.5414C21.3467 21.8902 22 21.1867 22 20.3172V12.9997C22 10.3645 19.6045 8.22849 16.6492 8.22849Z" fill="#23262E"/>
<path opacity="0.4" d="M19.2311 3.65739C19.2311 5.67728 17.7846 7.31431 16.0003 7.31431C14.216 7.31431 12.7695 5.67728 12.7695 3.65739C12.7695 1.6375 14.216 0 16.0003 0C17.7846 0 19.2311 1.6375 19.2311 3.65739Z" fill="#23262E"/>
</svg>
