<svg width="32" height="32" viewBox="0 0 32 32" fill="none" xmlns="http://www.w3.org/2000/svg">
<path opacity="0.4" d="M31.9571 6.97674V6.89311C31.9139 5.38921 30.6597 4.21951 29.103 4.21951H27.6759V2.75723C27.6759 1.21163 26.3786 0 24.8218 0C23.2219 0 21.9677 1.25333 21.9677 2.75723V4.21951H9.98937V2.75723C9.98937 1.21163 8.692 0 7.13526 0C5.57851 0 4.28114 1.25333 4.28114 2.75723V4.21951H2.85412C1.29737 4.21951 0.0434747 5.38921 0 6.89311V29.2428C0 30.7884 1.29737 32 2.85412 32H29.1459C30.7458 32 32 30.7467 32 29.2428L31.9571 6.97674ZM3.54639 28.4909V13.7861H28.4111V28.4909H3.54639Z" fill="#23262E"/>
</svg>
