<svg width="32" height="32" viewBox="0 0 32 32" fill="none" xmlns="http://www.w3.org/2000/svg">
<path opacity="0.4" fill-rule="evenodd" clip-rule="evenodd" d="M21.8179 25.3312C21.8179 25.7595 21.5938 26.1623 21.2142 26.4131C20.9627 26.5797 20.6644 26.6652 20.3635 26.6652C20.2093 26.6652 20.0537 26.6424 19.9037 26.5971C17.3862 25.8274 14.6137 25.8274 12.0962 26.5971C11.6525 26.729 11.1652 26.6638 10.7857 26.4131C10.4061 26.1623 10.182 25.7595 10.182 25.3312V21.3298C10.182 19.8587 11.4867 18.6623 13.0909 18.6623H18.9091C20.5132 18.6623 21.8179 19.8587 21.8179 21.3298L21.8179 25.3312ZM11.1765 6.72566L13.4834 6.02004C15.1052 5.52522 16.8915 5.52522 18.5161 6.02004L20.823 6.72566C21.5442 6.94717 21.9589 7.63936 21.7741 8.31572L20.3197 13.6509C20.2121 14.043 19.9167 14.3697 19.5169 14.5392C19.3233 14.6204 19.1168 14.6606 18.9088 14.6606C18.6863 14.6606 18.4623 14.614 18.2587 14.5204C16.8435 13.8709 15.156 13.8709 13.7408 14.5204C13.3482 14.7006 12.8841 14.7086 12.4826 14.5392C12.0827 14.3697 11.7874 14.043 11.6797 13.6509L10.2253 8.31572C10.0405 7.63936 10.4552 6.94717 11.1765 6.72566ZM26.1814 18.1098V12.545L29.5166 15.6035C29.8003 15.8636 30.1726 15.9942 30.5449 15.9942C30.9175 15.9942 31.2898 15.8636 31.5732 15.6035C32.142 15.0819 32.142 14.2389 31.5732 13.7175L26.1814 8.77291V8.30622C26.1814 6.15076 25.626 3.98993 24.5743 2.05998C24.4143 1.76769 24.1453 1.5397 23.8136 1.41821L23.6478 1.35702C18.7155 -0.452998 13.2832 -0.451684 8.35055 1.35702L8.18619 1.41821C7.85454 1.53968 7.58548 1.76766 7.4255 2.05998C6.37383 3.98993 5.81842 6.15071 5.81842 8.30622V8.77291L0.426612 13.7175C-0.142204 14.2389 -0.142204 15.0819 0.426612 15.6035C0.710047 15.8636 1.08239 15.9942 1.45491 15.9942C1.82722 15.9942 2.19951 15.8636 2.4832 15.6035L5.81842 12.545V18.1098L0.426612 23.0542C-0.142204 23.5756 -0.142204 24.4187 0.426612 24.9401C0.710047 25.2002 1.08239 25.3309 1.45491 25.3309C1.82722 25.3309 2.19951 25.2002 2.4832 24.9401L5.81842 21.8816V29.3323C5.81842 30.8036 7.12311 32 8.72727 32H23.2727C24.8769 32 26.1816 30.8036 26.1816 29.3323V21.8816L29.5168 24.9401C29.8005 25.2002 30.1728 25.3309 30.5451 25.3309C30.9177 25.3309 31.2899 25.2002 31.5734 24.9401C32.1422 24.4187 32.1422 23.5755 31.5734 23.0542L26.1814 18.1098Z" fill="#23262E"/>
</svg>
