<svg width="271" height="28" viewBox="0 0 271 28" fill="none" xmlns="http://www.w3.org/2000/svg">
<path d="M123.243 4.25243H122.388L120.165 7.26214H121.019L123.243 4.25243ZM121.379 4.25243H119.65L117.427 7.26214H119.155L121.379 4.25243ZM118.602 4.25243H116.534L114.311 7.26214H116.379L118.602 4.25243ZM115.466 4.25243H113.262L111.039 7.26214H113.243L115.466 4.25243ZM112.32 4.25243H108.67L106.447 7.26214H110.097L112.32 4.25243ZM107.466 4.25243H102.369L100.146 7.26214H105.184L107.466 4.25243ZM118.883 14.2621H109.068C107.621 14.2913 106.252 14.8932 105.252 15.932L100.476 22.534C99.767 23.5049 100.262 24.1165 101.388 24.1165L112.019 24.1748C113.282 24.233 114.495 23.6796 115.272 22.6893L120.126 15.9709C120.99 14.7864 119.67 14.301 118.835 14.301M128.602 14.301L121.437 24.165C120.466 25.4951 117.243 27.0777 112.039 27.0777H97.1651C93.1165 27.0777 91.0583 25.4854 92.0291 24.165C93 22.8447 99.1942 14.301 99.1942 14.301C100.233 12.8738 102.951 11.233 108.689 11.233H123.631C127.058 11.233 129.786 12.7573 128.67 14.301M90.1165 0.0291262C90.1165 0.0291262 73.5146 22.8932 72.5825 24.165C71.6505 25.4369 73.6893 27.0777 77.5437 27.0777H87.7087L89.835 24.165H81.6699C80.8155 24.165 79.8932 23.7573 80.5825 22.8058L91.8447 7.27184H98.8252L100.961 4.26214H94.0194L97.1165 0L90.1165 0.0291262ZM50.3107 11.233L40.9126 24.165C39.9417 25.4369 41.5631 27.0777 46.0194 27.0777H60.9417C65.4951 27.0777 68.7573 26.2816 70.301 24.165L79.699 11.233H72.466C72.466 11.233 64.5825 22.0777 64.068 22.7961C63.2524 23.6602 62.1262 24.165 60.932 24.1748H50.7379C49.466 24.1748 48.4563 23.767 49.2718 22.6408L57.5437 11.2621L50.3107 11.233ZM50.2427 8.36893L36.6505 27.0971H28.6117L36.2524 16.5146H15.6602L8.00971 27.0583H0L14.3786 7.26214C15.9515 5.08738 20.2816 3.26214 24.3786 3.26214H42.3884L40.0777 6.34951H25.7087C24.233 6.3301 22.8155 6.94175 21.8252 8.04854L18.068 13.233H38.6602L45.9029 3.26214C49.9709 3.26214 52.0194 5.85437 50.2233 8.3301" fill="white"/>
<path d="M248.874 14.2622L239.573 27.0583H245.544L252.903 16.9321H263.068C264.039 16.9321 264.291 17.4952 263.913 18.0097L257.34 27.0583H263.311L270.67 16.9224C271.932 15.1845 269.35 14.2622 266.641 14.2622H248.874ZM228.068 14.2622C224.427 14.2622 221.476 15.1262 220.165 16.9224L214.942 24.1262C213.971 25.4272 214.544 27.0389 218.777 27.0389H230.524C234.136 27.0389 236.835 26.5631 238.505 24.2719C240.165 21.9709 242.65 18.5534 243.67 17.1457C244.689 15.7476 243.311 14.233 239.786 14.233H228.087L228.068 14.2622ZM221.146 23.7864C221.388 23.4563 225.301 18.0777 225.66 17.5728C226.019 17.1457 226.553 16.9029 227.116 16.9224H236.311C237.078 16.9224 237.563 17.3593 237.282 17.7379L232.854 23.835C232.398 24.3301 231.786 24.6505 231.126 24.7476H221.932C221.369 24.7476 220.903 24.1457 221.146 23.7767M213.447 14.2525L204.214 27.0583H210.184L219.476 14.2622H213.447V14.2525ZM192.786 14.2525C190.524 14.2525 186.495 14.6991 185.291 16.3495L182.728 19.8835C182.291 20.4855 182.408 21.9612 184.301 21.9612H197.612C198.204 21.9612 198.65 22.2816 198.359 22.6699L197.388 23.9612C196.728 24.5049 195.903 24.7864 195.049 24.7476H179.175L177.485 27.0777H195.146C197.417 27.0777 201.408 26.6699 202.476 25.1942L205.184 21.5631C205.583 21.0097 205.592 19.5243 203.563 19.5243H189.971C189.495 19.5243 189.243 19.1262 189.417 18.8835C189.602 18.6408 190.107 17.9127 190.34 17.6117C190.835 17.1457 191.485 16.8932 192.165 16.9127H208.515L210.456 14.2427H192.786V14.2525ZM177.709 14.2622L170.835 23.7282C170.252 24.3301 169.466 24.6796 168.631 24.6991H160.039C159.068 24.6991 158.738 24.1845 159.165 23.602L165.961 14.233H160L152.835 24.0971C151.971 25.2913 152.33 27.0097 156.718 27.0097H168.466C172.233 27.0097 175.262 25.8641 176.126 24.6796L183.728 14.2136H177.757L177.709 14.2622ZM139.262 14.2622C135.243 14.2622 132.398 15.5049 131.359 16.9224L124 27.0583H129.971L133.65 21.9903H145.961L147.748 19.5243H135.456L136.427 18.233C137.223 17.3981 138.32 16.9321 139.466 16.9224H154.893L156.835 14.2622H139.262Z" fill="white"/>
<mask id="mask0_865_430" style="mask-type:luminance" maskUnits="userSpaceOnUse" x="124" y="14" width="147" height="14">
<path d="M248.874 14.2622L239.573 27.0583H245.544L252.903 16.9321H263.068C264.039 16.9321 264.291 17.4952 263.913 18.0097L257.34 27.0583H263.311L270.67 16.9224C271.932 15.1845 269.35 14.2622 266.641 14.2622H248.874ZM228.068 14.2622C224.427 14.2622 221.476 15.1262 220.165 16.9224L214.942 24.1262C213.971 25.4272 214.544 27.0389 218.777 27.0389H230.524C234.136 27.0389 236.835 26.5631 238.505 24.2719C240.165 21.9709 242.65 18.5534 243.67 17.1457C244.689 15.7476 243.311 14.233 239.786 14.233H228.087L228.068 14.2622ZM221.146 23.7864C221.388 23.4563 225.301 18.0777 225.66 17.5728C226.019 17.1457 226.553 16.9029 227.116 16.9224H236.311C237.078 16.9224 237.563 17.3593 237.282 17.7379L232.854 23.835C232.398 24.3301 231.786 24.6505 231.126 24.7476H221.932C221.369 24.7476 220.903 24.1457 221.146 23.7767M213.447 14.2525L204.214 27.0583H210.184L219.476 14.2622H213.447V14.2525ZM192.786 14.2525C190.524 14.2525 186.495 14.6991 185.291 16.3495L182.728 19.8835C182.291 20.4855 182.408 21.9612 184.301 21.9612H197.612C198.204 21.9612 198.65 22.2816 198.359 22.6699L197.388 23.9612C196.728 24.5049 195.903 24.7864 195.049 24.7476H179.175L177.485 27.0777H195.146C197.417 27.0777 201.408 26.6699 202.476 25.1942L205.184 21.5631C205.583 21.0097 205.592 19.5243 203.563 19.5243H189.971C189.495 19.5243 189.243 19.1262 189.417 18.8835C189.602 18.6408 190.107 17.9127 190.34 17.6117C190.835 17.1457 191.485 16.8932 192.165 16.9127H208.515L210.456 14.2427H192.786V14.2525ZM177.709 14.2622L170.835 23.7282C170.252 24.3301 169.466 24.6796 168.631 24.6991H160.039C159.068 24.6991 158.738 24.1845 159.165 23.602L165.961 14.233H160L152.835 24.0971C151.971 25.2913 152.33 27.0097 156.718 27.0097H168.466C172.233 27.0097 175.262 25.8641 176.126 24.6796L183.728 14.2136H177.757L177.709 14.2622ZM139.262 14.2622C135.243 14.2622 132.398 15.5049 131.359 16.9224L124 27.0583H129.971L133.65 21.9903H145.961L147.748 19.5243H135.456L136.427 18.233C137.223 17.3981 138.32 16.9321 139.466 16.9224H154.893L156.835 14.2622H139.262Z" fill="white"/>
</mask>
<g mask="url(#mask0_865_430)">
<path d="M248.874 14.2622L239.573 27.0583H245.544L252.903 16.9321H263.068C264.039 16.9321 264.291 17.4952 263.913 18.0097L257.34 27.0583H263.311L270.67 16.9224C271.932 15.1845 269.35 14.2622 266.641 14.2622H248.874ZM228.068 14.2622C224.427 14.2622 221.476 15.1262 220.165 16.9224L214.942 24.1262C213.971 25.4272 214.544 27.0389 218.777 27.0389H230.524C234.136 27.0389 236.835 26.5631 238.505 24.2719C240.165 21.9709 242.65 18.5534 243.67 17.1457C244.689 15.7476 243.311 14.233 239.786 14.233H228.087L228.068 14.2622ZM221.146 23.7864C221.388 23.4563 225.301 18.0777 225.66 17.5728C226.019 17.1457 226.553 16.9029 227.116 16.9224H236.311C237.078 16.9224 237.563 17.3593 237.282 17.7379L232.854 23.835C232.398 24.3301 231.786 24.6505 231.126 24.7476H221.932C221.369 24.7476 220.903 24.1457 221.146 23.7767M213.447 14.2525L204.214 27.0583H210.184L219.476 14.2622H213.447V14.2525ZM192.786 14.2525C190.524 14.2525 186.495 14.6991 185.291 16.3495L182.728 19.8835C182.291 20.4855 182.408 21.9612 184.301 21.9612H197.612C198.204 21.9612 198.65 22.2816 198.359 22.6699L197.388 23.9612C196.728 24.5049 195.903 24.7864 195.049 24.7476H179.175L177.485 27.0777H195.146C197.417 27.0777 201.408 26.6699 202.476 25.1942L205.184 21.5631C205.583 21.0097 205.592 19.5243 203.563 19.5243H189.971C189.495 19.5243 189.243 19.1262 189.417 18.8835C189.602 18.6408 190.107 17.9127 190.34 17.6117C190.835 17.1457 191.485 16.8932 192.165 16.9127H208.515L210.456 14.2427H192.786V14.2525ZM177.709 14.2622L170.835 23.7282C170.252 24.3301 169.466 24.6796 168.631 24.6991H160.039C159.068 24.6991 158.738 24.1845 159.165 23.602L165.961 14.233H160L152.835 24.0971C151.971 25.2913 152.33 27.0097 156.718 27.0097H168.466C172.233 27.0097 175.262 25.8641 176.126 24.6796L183.728 14.2136H177.757L177.709 14.2622ZM139.262 14.2622C135.243 14.2622 132.398 15.5049 131.359 16.9224L124 27.0583H129.971L133.65 21.9903H145.961L147.748 19.5243H135.456L136.427 18.233C137.223 17.3981 138.32 16.9321 139.466 16.9224H154.893L156.835 14.2622H139.262Z" fill="white"/>
</g>
</svg>
