<svg width="16" height="16" viewBox="0 0 16 16" fill="none" xmlns="http://www.w3.org/2000/svg">
<path d="M1 3.98351V12.8536C1.00263 13.3797 1.18817 13.8832 1.51607 14.2542C1.84397 14.6251 2.28759 14.8333 2.75 14.8333C3.21413 14.8333 3.65925 14.6236 3.98744 14.2502C4.31563 13.8768 4.5 13.3703 4.5 12.8423V3.97217C4.49563 3.44739 4.30932 2.9458 3.98161 2.57647C3.65389 2.20715 3.21127 1.99998 2.75 2C2.28702 2 1.8429 2.20874 1.5149 2.58051C1.1869 2.95227 1.00176 3.45676 1 3.98351Z" fill="#9AA2B6"/>
<path d="M10.7605 5.84024C10.7606 5.78043 10.7737 5.72169 10.7984 5.66996C10.8231 5.61823 10.8586 5.5753 10.9012 5.54547C10.9439 5.51564 10.9923 5.49996 11.0415 5.5C11.0907 5.50004 11.1391 5.51581 11.1817 5.54572L13.0206 6.83342L14.8596 8.12115C14.9023 8.1511 14.9377 8.19416 14.9624 8.24604C14.987 8.29791 15 8.35676 15 8.41667C15 8.47657 14.987 8.53542 14.9624 8.5873C14.9377 8.63917 14.9023 8.68223 14.8596 8.71218L13.0206 9.99991L11.1817 11.2876C11.1391 11.3175 11.0907 11.3333 11.0415 11.3333C10.9923 11.3334 10.9439 11.3177 10.9012 11.2879C10.8586 11.258 10.8231 11.2151 10.7984 11.1634C10.7737 11.1116 10.7606 11.0529 10.7605 10.9931V9.58556H6.63962C6.38157 9.58556 6.1341 9.46103 5.95164 9.23934C5.76917 9.01766 5.66667 8.71699 5.66667 8.40348C5.66667 8.08997 5.76917 7.7893 5.95164 7.56761C6.1341 7.34592 6.38157 7.22137 6.63962 7.22137H10.7605V5.82804V5.84024Z" fill="#9AA2B6"/>
</svg>
