<svg width="16" height="16" viewBox="0 0 16 16" fill="none" xmlns="http://www.w3.org/2000/svg">
<path fill-rule="evenodd" clip-rule="evenodd" d="M13.4125 13.5562H7.89149C7.6032 14.3973 6.83649 15 5.93323 15C5.02996 15 4.26344 14.3973 3.97516 13.5562H2.58752C2.26312 13.5562 2.00019 13.2812 2.00019 12.9418V12.7007C2.00019 12.3614 2.26312 12.0863 2.58752 12.0863H3.97574C4.2644 11.2461 5.03073 10.6441 5.93323 10.6441C6.83592 10.6441 7.60205 11.2461 7.89091 12.0863H13.4125C13.7369 12.0863 13.9998 12.3614 13.9998 12.7007V12.9418C14 13.281 13.7369 13.5562 13.4125 13.5562ZM5.93323 12.099C5.5516 12.099 5.24238 12.4227 5.24238 12.8219C5.24238 13.2211 5.55179 13.5448 5.93323 13.5448C6.31485 13.5448 6.62426 13.2211 6.62426 12.8219C6.62426 12.4227 6.31504 12.099 5.93323 12.099ZM13.4125 8.73405H12.04C11.7517 9.57508 10.985 10.1778 10.0818 10.1778C9.17849 10.1778 8.41178 9.57508 8.1235 8.73405H2.58752C2.26312 8.73405 2.00019 8.45899 2.00019 8.11965V7.87855C2.00019 7.5392 2.26312 7.26415 2.58752 7.26415H8.12426C8.41312 6.42392 9.17926 5.82197 10.0819 5.82197C10.9844 5.82197 11.7508 6.42392 12.0394 7.26415H13.4127C13.7371 7.26415 14 7.5392 14 7.87855V8.11965C14 8.45899 13.7369 8.73405 13.4125 8.73405ZM10.0819 7.27701C9.70032 7.27701 9.39091 7.60068 9.39091 7.9999C9.39091 8.39912 9.70032 8.72279 10.0819 8.72279C10.4636 8.72279 10.7728 8.39912 10.7728 7.9999C10.7728 7.60068 10.4634 7.27701 10.0819 7.27701ZM13.4125 3.91207H7.89149C7.6032 4.7531 6.83649 5.35585 5.93323 5.35585C5.02996 5.35585 4.26344 4.7531 3.97497 3.91207H2.58732C2.26293 3.91207 2 3.63702 2 3.29767V3.05657C2 2.71723 2.26293 2.44217 2.58732 2.44217H3.97554C4.2644 1.60194 5.03054 1 5.93303 1C6.83553 1 7.60186 1.60194 7.89072 2.44217H13.4123C13.7367 2.44217 13.9996 2.71723 13.9996 3.05657V3.29767C14 3.63702 13.7369 3.91207 13.4125 3.91207ZM5.93323 2.45503C5.5516 2.45503 5.24238 2.77871 5.24238 3.17793C5.24238 3.57714 5.55179 3.90082 5.93323 3.90082C6.31485 3.90082 6.62426 3.57714 6.62426 3.17793C6.62426 2.77871 6.31504 2.45503 5.93323 2.45503Z" fill="#9AA2B6"/>
</svg>
