<svg width="16" height="16" viewBox="0 0 16 16" fill="none" xmlns="http://www.w3.org/2000/svg">
<path d="M2 12.5C2 11.7044 2.31607 10.9413 2.87868 10.3787C3.44129 9.81607 4.20435 9.5 5 9.5H11C11.7957 9.5 12.5587 9.81607 13.1213 10.3787C13.6839 10.9413 14 11.7044 14 12.5C14 12.8978 13.842 13.2794 13.5607 13.5607C13.2794 13.842 12.8978 14 12.5 14H3.5C3.10218 14 2.72065 13.842 2.43934 13.5607C2.15804 13.2794 2 12.8978 2 12.5Z" stroke="#9AA2B6" stroke-width="1.79786" stroke-linejoin="round"/>
<path d="M8 6.50001C9.24265 6.50001 10.25 5.49265 10.25 4.25C10.25 3.00736 9.24265 2 8 2C6.75736 2 5.75 3.00736 5.75 4.25C5.75 5.49265 6.75736 6.50001 8 6.50001Z" stroke="#9AA2B6" stroke-width="1.79786"/>
</svg>
