<svg width="16" height="16" viewBox="0 0 16 16" fill="none" xmlns="http://www.w3.org/2000/svg">
<path d="M13.4688 2H10.625C10.1279 2.00083 9.63667 2.09903 9.18404 2.28805C8.73142 2.47708 8.32778 2.7526 8 3.09626C7.67222 2.7526 7.26858 2.47708 6.81596 2.28805C6.36333 2.09903 5.87211 2.00083 5.375 2H2.53125C2.12514 2 1.73566 2.14835 1.44849 2.41241C1.16133 2.67647 1 3.03461 1 3.40805V10.6494C1 11.0229 1.16133 11.381 1.44849 11.6451C1.73566 11.9091 2.12514 12.0575 2.53125 12.0575H5.375C5.83913 12.0575 6.28425 12.227 6.61244 12.5288C6.94063 12.8306 7.125 13.2399 7.125 13.6667H8.875C8.875 13.2399 9.05937 12.8306 9.38756 12.5288C9.71575 12.227 10.1609 12.0575 10.625 12.0575H13.4688C13.8749 12.0575 14.2643 11.9091 14.5515 11.6451C14.8387 11.381 15 11.0229 15 10.6494V3.40805C15 3.03461 14.8387 2.67647 14.5515 2.41241C14.2643 2.14835 13.8749 2 13.4688 2ZM5.375 10.4483H2.75V3.6092H5.375C5.83913 3.6092 6.28425 3.77874 6.61244 4.08052C6.94063 4.3823 7.125 4.79161 7.125 5.21839V10.8807C6.59347 10.5969 5.98964 10.4477 5.375 10.4483ZM13.25 10.4483H10.625C10.0104 10.4477 9.40653 10.5969 8.875 10.8807V5.21839C8.875 4.79161 9.05937 4.3823 9.38756 4.08052C9.71575 3.77874 10.1609 3.6092 10.625 3.6092H13.25V10.4483Z" fill="#9AA2B6"/>
</svg>
