<svg width="16" height="16" viewBox="0 0 16 16" fill="none" xmlns="http://www.w3.org/2000/svg">
<path d="M6.24998 1H2.16672C1.52517 1 1 1.52517 1 2.16672V6.24998C1 6.89153 1.52517 7.4167 2.16672 7.4167H6.24998C6.89135 7.4167 7.4167 6.89153 7.4167 6.24998V2.16672C7.4167 1.52517 6.89135 1 6.24998 1ZM2.45827 2.45827H4.20826V3.62499H2.45827V2.45827ZM5.95825 5.95825H2.45827V4.79153H5.95825V5.95825Z" fill="#9AA2B6"/>
<path d="M13.833 1H9.74973C9.10836 1 8.58301 1.52517 8.58301 2.16672V6.24998C8.58301 6.89153 9.10836 7.4167 9.74973 7.4167H13.833C14.4745 7.4167 14.9997 6.89153 14.9997 6.24998V2.16672C14.9997 1.52517 14.4745 1 13.833 1ZM11.7914 5.95825H10.0415V4.79153H11.7914V5.95825ZM13.5414 3.62499H10.0415V2.45827H13.5414V3.62499Z" fill="#9AA2B6"/>
<path d="M6.24998 8.58301H2.16672C1.52517 8.58301 1 9.10801 1 9.74955V13.833C1 14.4744 1.52517 14.9995 2.16672 14.9995H6.24998C6.89135 14.9995 7.4167 14.4744 7.4167 13.833V9.74955C7.4167 9.10801 6.89135 8.58301 6.24998 8.58301ZM4.20826 13.5411H2.45827V12.3745H4.20826V13.5411ZM5.95825 11.208H2.45827V10.0411H5.95825V11.208Z" fill="#9AA2B6"/>
<path d="M13.833 8.58301H9.74973C9.10836 8.58301 8.58301 9.10801 8.58301 9.74955V13.833C8.58301 14.4744 9.10836 14.9995 9.74973 14.9995H13.833C14.4745 14.9995 14.9997 14.4744 14.9997 13.833V9.74955C14.9997 9.10801 14.4745 8.58301 13.833 8.58301ZM10.0415 10.0411H11.7914V11.208H10.0415V10.0411ZM13.5414 13.5411H10.0415V12.3745H13.5414V13.5411Z" fill="#9AA2B6"/>
</svg>
