<svg width="36" height="36" viewBox="0 0 36 36" fill="none" xmlns="http://www.w3.org/2000/svg">
<path d="M34.4138 10.7652H34.175L33.5543 11.5427H33.7928L34.4138 10.7652ZM33.8933 10.7652H33.4105L32.7897 11.5427H33.2723L33.8933 10.7652ZM33.1178 10.7652H32.5404L31.9196 11.5427H32.4971L33.1178 10.7652ZM32.2422 10.7652H31.6267L31.006 11.5427H31.6214L32.2422 10.7652ZM31.3637 10.7652H30.3445L29.7237 11.5427H30.743L31.3637 10.7652ZM30.0083 10.7652H28.585L27.9643 11.5427H29.3711L30.0083 10.7652ZM33.1963 13.351H30.4556C30.0516 13.3585 29.6693 13.514 29.3901 13.7824L28.0564 15.4879C27.8585 15.7387 27.9967 15.8967 28.3111 15.8967L31.2796 15.9118C31.6323 15.9268 31.971 15.7838 32.188 15.528L33.5434 13.7924C33.7847 13.4864 33.4161 13.3611 33.1829 13.3611M35.9102 13.3611L33.9095 15.9092C33.6383 16.2528 32.7384 16.6617 31.2852 16.6617H27.1319C26.0014 16.6617 25.4267 16.2503 25.6978 15.9092C25.9689 15.5681 27.6985 13.3611 27.6985 13.3611C27.9886 12.9924 28.7475 12.5685 30.3498 12.5685H34.5221C35.4791 12.5685 36.2408 12.9623 35.9292 13.3611M25.1637 9.6742C25.1637 9.6742 20.5279 15.5807 20.2676 15.9092C20.0073 16.2378 20.5766 16.6617 21.6529 16.6617H24.4914L25.0851 15.9092H22.8051C22.5665 15.9092 22.309 15.8039 22.5015 15.5581L25.6463 11.5452H27.5955L28.1919 10.7677H26.2535L27.1183 9.66667L25.1637 9.6742ZM14.0485 12.5685L11.4242 15.9092C11.1531 16.2378 11.6059 16.6617 12.8502 16.6617H17.0171C18.2885 16.6617 19.1995 16.456 19.6305 15.9092L22.2548 12.5685H20.2351C20.2351 12.5685 18.0337 15.37 17.89 15.5556C17.6623 15.7788 17.3478 15.9092 17.0144 15.9118H14.1678C13.8126 15.9118 13.5307 15.8064 13.7584 15.5155L16.0682 12.576L14.0485 12.5685ZM14.0295 11.8286L10.2341 16.6667H7.98939L10.1229 13.9329H4.37288L2.23659 16.6566H0L4.01501 11.5427C4.45422 10.9809 5.66334 10.5094 6.80736 10.5094H11.8363L11.1911 11.3069H7.17877C6.76671 11.3019 6.37089 11.4599 6.09436 11.7459L5.04522 13.0852H10.7953L12.8177 10.5094C13.9536 10.5094 14.5256 11.179 14.0241 11.8186" fill="white"/>
<path d="M23.7856 20.6843L22.014 25.3263H23.1513L24.553 21.6529H26.4892C26.6742 21.6529 26.7222 21.8571 26.6502 22.0438L25.3982 25.3263H26.5355L27.9372 21.6493C28.1776 21.0189 27.6858 20.6843 27.1698 20.6843H23.7856ZM19.8225 20.6843C19.129 20.6843 18.5669 20.9977 18.3172 21.6493L17.3223 24.2626C17.1374 24.7346 17.2465 25.3193 18.0528 25.3193H20.2904C20.9784 25.3193 21.4925 25.1467 21.8105 24.3155C22.1267 23.4808 22.6001 22.241 22.7944 21.7303C22.9885 21.2232 22.726 20.6737 22.0545 20.6737H19.8262L19.8225 20.6843ZM18.5041 24.1394C18.5502 24.0196 19.2955 22.0684 19.3639 21.8853C19.4323 21.7303 19.534 21.6423 19.6412 21.6493H21.3926C21.5387 21.6493 21.6311 21.8078 21.5776 21.9452L20.7342 24.157C20.6473 24.3366 20.5307 24.4528 20.405 24.4881H18.6538C18.5465 24.4881 18.4578 24.2697 18.5041 24.1358M17.0376 20.6808L15.2789 25.3263H16.4161L18.186 20.6843H17.0376V20.6808ZM13.1021 20.6808C12.6713 20.6808 11.9038 20.8428 11.6745 21.4415L11.1863 22.7235C11.1031 22.9419 11.1254 23.4772 11.4859 23.4772H14.0214C14.1341 23.4772 14.2191 23.5935 14.1637 23.7343L13.9787 24.2028C13.853 24.4 13.6959 24.5021 13.5332 24.4881H10.5096L10.1877 25.3333H13.5517C13.9842 25.3333 14.7444 25.1854 14.9479 24.6501L15.4637 23.3328C15.5397 23.1321 15.5414 22.5932 15.1549 22.5932H12.5659C12.4753 22.5932 12.4273 22.4488 12.4604 22.3608C12.4957 22.2727 12.5918 22.0086 12.6362 21.8994C12.7305 21.7303 12.8543 21.6387 12.9839 21.6458H16.0981L16.4679 20.6772H13.1021V20.6808ZM10.2303 20.6843L8.92098 24.1183C8.80993 24.3366 8.66022 24.4634 8.50117 24.4705H6.86459C6.67964 24.4705 6.61678 24.2838 6.69812 24.0725L7.9926 20.6737H6.85716L5.4924 24.2521C5.32783 24.6853 5.39621 25.3087 6.23202 25.3087H8.46974C9.18727 25.3087 9.76422 24.8931 9.9288 24.4634L11.3768 20.6667H10.2395L10.2303 20.6843ZM2.90706 20.6843C2.14153 20.6843 1.59962 21.1351 1.40172 21.6493L0 25.3263H1.13734L1.8381 23.4878H4.18306L4.52344 22.5932H2.1821L2.36706 22.1248C2.51868 21.8219 2.72763 21.6529 2.94591 21.6493H5.8844L6.25431 20.6843H2.90706Z" fill="white"/>
</svg>
