<svg width="16" height="16" viewBox="0 0 16 16" fill="none" xmlns="http://www.w3.org/2000/svg">
    <path d="M13.0935 5.79476H15.2542V2.55383C15.2542 1.98072 15.0264 1.43121 14.6214 1.02594C14.2161 0.620893 13.6666 0.393127 13.0935 0.393127H9.85254V2.55383H13.0935V5.79476Z" fill="black"/>
    <path d="M15.2542 13.3572V10.1163H13.0935V13.3572H9.85254V15.5179H13.0935C13.6666 15.5179 14.2161 15.2901 14.6214 14.8851C15.0264 14.4799 15.2542 13.9303 15.2542 13.3572Z" fill="black"/>
    <path d="M2.29009 15.5178H5.53102V13.3571H2.29009V10.1161H0.129395V13.3571C0.129395 13.9302 0.357165 14.4797 0.762205 14.885C1.16744 15.29 1.71699 15.5178 2.29009 15.5178Z" fill="black"/>
    <path d="M2.29009 2.55389H5.53102V0.393188H2.29009C1.71699 0.393188 1.16747 0.620959 0.762205 1.026C0.35716 1.43123 0.129395 1.98079 0.129395 2.55389V5.79482H2.29009V2.55389Z" fill="black"/>
</svg>
