<svg width="26" height="22" viewBox="0 0 26 22" fill="none" xmlns="http://www.w3.org/2000/svg">
<path opacity="0.4" d="M25.5618 3.38432C24.6209 3.81661 23.6068 4.10069 22.556 4.23656C23.6312 3.58194 24.4621 2.54443 24.8531 1.29695C23.8389 1.91452 22.7148 2.34681 21.5296 2.59384C20.5643 1.53163 19.208 0.914062 17.6684 0.914062C14.797 0.914062 12.451 3.28551 12.451 6.21276C12.451 6.63271 12.4999 7.0403 12.5854 7.42319C8.23549 7.20087 4.36212 5.0888 1.78395 1.88981C1.33185 2.66795 1.07526 3.58194 1.07526 4.54534C1.07526 6.38568 1.99167 8.01605 3.40905 8.9424C2.54152 8.9424 1.73507 8.69537 1.02638 8.32483V8.36189C1.02638 10.931 2.83477 13.0801 5.22966 13.5618C4.46076 13.7745 3.65355 13.8041 2.87143 13.6482C3.2033 14.7012 3.85325 15.6225 4.72993 16.2827C5.60661 16.9429 6.66592 17.3088 7.75896 17.3289C5.90613 18.8116 3.60944 19.6131 1.24632 19.6016C0.83088 19.6016 0.41544 19.5769 0 19.5275C2.32158 21.0343 5.08303 21.9112 8.03999 21.9112C17.6684 21.9112 22.9592 13.8335 22.9592 6.83033C22.9592 6.59565 22.9592 6.37333 22.947 6.13866C23.9733 5.39758 24.8531 4.45888 25.5618 3.38432Z" fill="white"/>
</svg>
