<svg aria-label="Instagram" xmlns="http://www.w3.org/2000/svg" viewBox="0 0 128 128"><path fill="#fff" d="M64 0A64 64 0 0 0 0 64c0 35.35 28.65 64 64 64s64-28.65 64-64A64 64 0 0 0 64 0z"/><path fill="#2f3737" d="M64 47.05a16.95 16.95 0 1 0 0 33.9 16.95 16.95 0 0 0 0-33.9zM64 75a11 11 0 1 1-.01-21.99A11 11 0 0 1 64 75zm32.8-24.61a24.4 24.4 0 0 0-1.53-8.01 16.02 16.02 0 0 0-3.81-5.84 16.23 16.23 0 0 0-5.85-3.81c-2.1-.82-4.5-1.37-8.01-1.53-3.51-.16-4.64-.2-13.6-.2s-10.09.04-13.61.2a24.4 24.4 0 0 0-8.01 1.53 16.14 16.14 0 0 0-5.85 3.81 16.28 16.28 0 0 0-3.81 5.84c-.82 2.1-1.37 4.5-1.53 8.01C31.04 53.91 31 55.04 31 64c0 8.96.04 10.09.2 13.61a24.4 24.4 0 0 0 1.53 8.01 16.02 16.02 0 0 0 3.81 5.84 16.23 16.23 0 0 0 5.85 3.81c2.1.82 4.5 1.37 8.01 1.53 3.51.16 4.64.2 13.6.2s10.09-.04 13.61-.2a24.4 24.4 0 0 0 8.01-1.53 16.14 16.14 0 0 0 5.85-3.81 16.28 16.28 0 0 0 3.81-5.84c.82-2.1 1.37-4.5 1.53-8.01.15-3.52.19-4.65.19-13.61s-.04-10.09-.2-13.61zm-5.94 26.94a18.15 18.15 0 0 1-1.14 6.13 10.13 10.13 0 0 1-2.47 3.79 10.25 10.25 0 0 1-3.79 2.47c-1.16.45-2.91.99-6.13 1.14-3.48.16-4.52.19-13.33.19s-9.86-.03-13.33-.19a18.15 18.15 0 0 1-6.13-1.14 10.13 10.13 0 0 1-3.79-2.47 10.25 10.25 0 0 1-2.47-3.79 18.35 18.35 0 0 1-1.14-6.13c-.16-3.48-.19-4.52-.19-13.33s.03-9.86.19-13.33c.15-3.22.68-4.96 1.14-6.13.6-1.54 1.31-2.64 2.47-3.79a10.25 10.25 0 0 1 3.79-2.47c1.16-.45 2.91-.99 6.13-1.14 3.48-.16 4.52-.19 13.33-.19s9.86.03 13.33.19c3.22.15 4.96.68 6.13 1.14 1.54.6 2.64 1.31 3.79 2.47a10.25 10.25 0 0 1 2.47 3.79c.45 1.16.99 2.91 1.14 6.13.16 3.48.19 4.52.19 13.33s-.03 9.86-.19 13.33zm-9.24-34.91a3.96 3.96 0 1 0 0 7.91 3.96 3.96 0 0 0 0-7.91z"/></svg>