<svg aria-label="Pinterest" xmlns="http://www.w3.org/2000/svg" viewBox="0 0 128 128"><path fill="#fff" d="M64 0A64 64 0 0 0 0 64c0 35.35 28.65 64 64 64s64-28.65 64-64A64 64 0 0 0 64 0z"/><path fill="#2f3737" d="M64 100.78c-3.79 0-7.45-.57-10.89-1.64 1.5-2.44 3.74-6.45 4.57-9.64l2.29-8.74c1.2 2.29 4.7 4.22 8.43 4.22 11.09 0 19.09-10.2 19.09-22.88 0-12.15-9.92-21.24-22.68-21.24-15.87 0-24.3 10.66-24.3 22.26 0 5.39 2.87 12.11 7.47 14.25.7.32 1.07.18 1.23-.49l1.02-4.17c.09-.37.05-.69-.26-1.05-1.52-1.84-2.74-5.23-2.74-8.39 0-8.11 6.14-15.96 16.61-15.96 9.04 0 15.36 6.16 15.36 14.96 0 9.95-5.03 16.84-11.56 16.84-3.61 0-6.31-2.99-5.45-6.65 1.04-4.37 3.05-9.09 3.05-12.25 0-2.83-1.52-5.18-4.65-5.18-3.69 0-6.66 3.82-6.66 8.93 0 3.26 1.1 5.46 1.1 5.46s-3.65 15.41-4.31 18.28c-.74 3.18-.45 7.64-.13 10.55A36.78 36.78 0 1 1 64 100.78z"/></svg>