<svg aria-label="Twitter" xmlns="http://www.w3.org/2000/svg" viewBox="0 0 128 128"><path fill="#1da1f2" d="M64 0A64 64 0 0 0 0 64c0 35.35 28.65 64 64 64s64-28.65 64-64A64 64 0 0 0 64 0z"/><path fill="#fff" d="M90.74 53.31c.02.55.04 1.1.04 1.65 0 16.87-12.84 36.31-36.31 36.31a36.09 36.09 0 0 1-19.56-5.73 25.63 25.63 0 0 0 18.89-5.28 12.77 12.77 0 0 1-11.92-8.86 12.68 12.68 0 0 0 5.76-.22 12.78 12.78 0 0 1-10.25-12.52v-.16c1.72.96 3.69 1.53 5.78 1.6a12.78 12.78 0 0 1-3.95-17.04 36.22 36.22 0 0 0 26.31 13.33 12.76 12.76 0 0 1 21.75-11.64 25.22 25.22 0 0 0 8.1-3.1 12.8 12.8 0 0 1-5.61 7.06c2.58-.31 5.04-.99 7.33-2.01a25.8 25.8 0 0 1-6.36 6.61z"/></svg>