<svg aria-label="YouTube" xmlns="http://www.w3.org/2000/svg" viewBox="0 0 128 128"><path fill="red" d="M64 0A64 64 0 0 0 0 64c0 35.35 28.65 64 64 64s64-28.65 64-64A64 64 0 0 0 64 0z"/><path fill="#fff" d="M101.37 45.23c-.9-3.36-3.54-6-6.9-6.9C88.39 36.7 64 36.7 64 36.7s-24.39 0-30.47 1.63c-3.36.9-6 3.54-6.9 6.9C25 51.31 25 64 25 64s0 12.69 1.63 18.77c.9 3.36 3.54 6 6.9 6.9C39.61 91.3 64 91.3 64 91.3s24.39 0 30.47-1.63c3.36-.9 6-3.54 6.9-6.9C103 76.69 103 64 103 64s0-12.69-1.63-18.77zM56.2 75.7V52.3L76.46 64 56.2 75.7z"/></svg>